<?xml version="1.0" encoding="UTF-8" standalone="no"?>
<svg
   xmlns:dc="http://purl.org/dc/elements/1.1/"
   xmlns:cc="http://creativecommons.org/ns#"
   xmlns:rdf="http://www.w3.org/1999/02/22-rdf-syntax-ns#"
   xmlns:svg="http://www.w3.org/2000/svg"
   xmlns="http://www.w3.org/2000/svg"
   xmlns:xlink="http://www.w3.org/1999/xlink"
   xmlns:sodipodi="http://sodipodi.sourceforge.net/DTD/sodipodi-0.dtd"
   xmlns:inkscape="http://www.inkscape.org/namespaces/inkscape"
   sodipodi:docname="bi-turbo-f.svg"
   inkscape:version="1.0 (4035a4fb49, 2020-05-01)"
   id="svg8"
   version="1.1"
   viewBox="0 0 6.3499999 6.3500002"
   height="24"
   width="24"
   inkscape:export-filename="P:\Shared\F1\Teamidentität\Materialien\icons (jam-master)\Eigene\bi turbo icon.png"
   inkscape:export-xdpi="126"
   inkscape:export-ydpi="126">
  <defs
     id="defs2">
    <linearGradient
       id="linearGradient7242">
      <stop
         id="stop7244"
         style="stop-color:#ffe8d2;stop-opacity:1;"
         offset="0" />
      <stop
         id="stop7246"
         style="stop-color:#ffb471;stop-opacity:1;"
         offset="0.48992759" />
      <stop
         id="stop7248"
         style="stop-color:#eba96d;stop-opacity:1;"
         offset="0.62234044" />
      <stop
         id="stop7250"
         style="stop-color:#481d00;stop-opacity:1;"
         offset="0.75" />
      <stop
         id="stop7252"
         style="stop-color:#ff9348;stop-opacity:1;"
         offset="1" />
    </linearGradient>
    <linearGradient
       id="linearGradient7230">
      <stop
         id="stop7232"
         style="stop-color:#ffffff;stop-opacity:0;"
         offset="0" />
      <stop
         id="stop7234"
         style="stop-color:#e4813c;stop-opacity:0;"
         offset="0.62234044" />
      <stop
         id="stop7236"
         style="stop-color:#531f00;stop-opacity:1;"
         offset="0.70001513" />
      <stop
         id="stop7238"
         style="stop-color:#ffecdf;stop-opacity:0;"
         offset="0.82341313" />
      <stop
         id="stop7240"
         style="stop-color:#fff6d7;stop-opacity:0;"
         offset="1" />
    </linearGradient>
    <linearGradient
       id="linearGradient2359">
      <stop
         offset="0"
         style="stop-color:#ffffff;stop-opacity:0;"
         id="stop2361" />
      <stop
         offset="0.62234044"
         style="stop-color:#d8ab00;stop-opacity:0;"
         id="stop2363" />
      <stop
         offset="0.70001513"
         style="stop-color:#534100;stop-opacity:1;"
         id="stop2365" />
      <stop
         offset="0.82341313"
         style="stop-color:#fff4df;stop-opacity:0;"
         id="stop2367" />
      <stop
         offset="1"
         style="stop-color:#fff6d7;stop-opacity:0;"
         id="stop2369" />
    </linearGradient>
    <linearGradient
       id="linearGradient2347">
      <stop
         offset="0"
         style="stop-color:#fffdd2;stop-opacity:1;"
         id="stop2349" />
      <stop
         offset="0.48992759"
         style="stop-color:#ffdd71;stop-opacity:1;"
         id="stop2351" />
      <stop
         offset="0.62234044"
         style="stop-color:#ffef6e;stop-opacity:1;"
         id="stop2353" />
      <stop
         offset="0.75"
         style="stop-color:#482e00;stop-opacity:1;"
         id="stop2355" />
      <stop
         offset="1"
         style="stop-color:#ffdb48;stop-opacity:1;"
         id="stop2357" />
    </linearGradient>
    <linearGradient
       id="linearGradient8150">
      <stop
         id="stop8152"
         style="stop-color:#ffffff;stop-opacity:1;"
         offset="0" />
      <stop
         id="stop8154"
         style="stop-color:#ffffff;stop-opacity:1;"
         offset="0.48992759" />
      <stop
         id="stop8156"
         style="stop-color:#bababa;stop-opacity:1;"
         offset="0.62234044" />
      <stop
         id="stop8158"
         style="stop-color:#000000;stop-opacity:1;"
         offset="0.75" />
      <stop
         id="stop8160"
         style="stop-color:#ffffff;stop-opacity:1;"
         offset="1" />
    </linearGradient>
    <linearGradient
       id="linearGradient6260">
      <stop
         id="stop6262"
         offset="0"
         style="stop-color:#000000;stop-opacity:1;" />
      <stop
         id="stop6264"
         offset="1"
         style="stop-color:#000000;stop-opacity:0;" />
    </linearGradient>
    <linearGradient
       id="linearGradient10084">
      <stop
         id="stop10086"
         style="stop-color:#ffffff;stop-opacity:0;"
         offset="0" />
      <stop
         id="stop10090"
         style="stop-color:#6c6c6c;stop-opacity:0;"
         offset="0.62234044" />
      <stop
         id="stop10092"
         style="stop-color:#343434;stop-opacity:1;"
         offset="0.70001513" />
      <stop
         id="stop18048"
         style="stop-color:#ffffff;stop-opacity:0;"
         offset="0.82341313" />
      <stop
         id="stop10094"
         style="stop-color:#ffffff;stop-opacity:0;"
         offset="1" />
    </linearGradient>
    <radialGradient
       gradientTransform="matrix(1.3079138,-2.8441293e-2,2.7142603e-2,1.2481916,-50.532422,-73.424555)"
       gradientUnits="userSpaceOnUse"
       r="86.807602"
       fy="312.267"
       fx="134.28101"
       cy="312.267"
       cx="134.28101"
       id="radialGradient2271"
       xlink:href="#linearGradient8150"
       inkscape:collect="always" />
    <radialGradient
       r="86.807602"
       fy="326.55841"
       fx="147.33928"
       cy="326.55841"
       cx="147.33928"
       gradientTransform="matrix(1.308223,-1.388817e-8,1.4507411e-8,1.3665535,-41.714338,-116.26715)"
       gradientUnits="userSpaceOnUse"
       id="radialGradient3254"
       xlink:href="#linearGradient10084"
       inkscape:collect="always" />
    <radialGradient
       gradientUnits="userSpaceOnUse"
       gradientTransform="matrix(1,0,0,0.3482939,0,272.40251)"
       r="74.919426"
       fy="417.9837"
       fx="159.4702"
       cy="417.9837"
       cx="159.4702"
       id="radialGradient4227"
       xlink:href="#linearGradient6260"
       inkscape:collect="always" />
    <radialGradient
       r="74.919426"
       fy="417.9837"
       fx="159.4702"
       cy="417.9837"
       cx="159.4702"
       gradientTransform="matrix(1,0,0,0.3482939,0,272.40251)"
       gradientUnits="userSpaceOnUse"
       id="radialGradient2341"
       xlink:href="#linearGradient6260"
       inkscape:collect="always" />
    <radialGradient
       r="86.807602"
       fy="312.267"
       fx="134.28101"
       cy="312.267"
       cx="134.28101"
       gradientTransform="matrix(1.3079138,-2.8441293e-2,2.7142603e-2,1.2481916,-50.532422,-73.424555)"
       gradientUnits="userSpaceOnUse"
       id="radialGradient2343"
       xlink:href="#linearGradient2347"
       inkscape:collect="always" />
    <radialGradient
       r="86.807602"
       fy="326.55841"
       fx="147.33928"
       cy="326.55841"
       cx="147.33928"
       gradientTransform="matrix(1.308223,-1.388817e-8,1.4507411e-8,1.3665535,-41.714338,-116.26715)"
       gradientUnits="userSpaceOnUse"
       id="radialGradient2345"
       xlink:href="#linearGradient2359"
       inkscape:collect="always" />
    <radialGradient
       r="74.919426"
       fy="417.9837"
       fx="159.4702"
       cy="417.9837"
       cx="159.4702"
       gradientTransform="matrix(1,0,0,0.3482939,0,272.40251)"
       gradientUnits="userSpaceOnUse"
       id="radialGradient7224"
       xlink:href="#linearGradient6260"
       inkscape:collect="always" />
    <radialGradient
       r="86.807602"
       fy="312.267"
       fx="134.28101"
       cy="312.267"
       cx="134.28101"
       gradientTransform="matrix(1.3079138,-2.8441293e-2,2.7142603e-2,1.2481916,-50.532422,-73.424555)"
       gradientUnits="userSpaceOnUse"
       id="radialGradient7226"
       xlink:href="#linearGradient7242"
       inkscape:collect="always" />
    <radialGradient
       r="86.807602"
       fy="326.55841"
       fx="147.33928"
       cy="326.55841"
       cx="147.33928"
       gradientTransform="matrix(1.308223,-1.388817e-8,1.4507411e-8,1.3665535,-41.714338,-116.26715)"
       gradientUnits="userSpaceOnUse"
       id="radialGradient7228"
       xlink:href="#linearGradient7230"
       inkscape:collect="always" />
    <radialGradient
       r="86.807602"
       fy="312.267"
       fx="134.28101"
       cy="312.267"
       cx="134.28101"
       gradientTransform="matrix(0.05900691,-0.00128248,0.00122455,0.05628384,22.229327,-16.376927)"
       gradientUnits="userSpaceOnUse"
       id="radialGradient14089"
       xlink:href="#linearGradient8150"
       inkscape:collect="always" />
  </defs>
  <sodipodi:namedview
     inkscape:window-maximized="1"
     inkscape:window-y="-8"
     inkscape:window-x="1272"
     inkscape:window-height="1017"
     inkscape:window-width="1920"
     inkscape:snap-others="false"
     inkscape:snap-grids="true"
     inkscape:snap-global="false"
     inkscape:snap-nodes="true"
     inkscape:snap-text-baseline="true"
     inkscape:snap-center="true"
     inkscape:snap-object-midpoints="true"
     inkscape:snap-midpoints="true"
     inkscape:snap-smooth-nodes="true"
     inkscape:snap-intersection-paths="true"
     inkscape:object-paths="true"
     inkscape:snap-bbox-midpoints="true"
     inkscape:snap-bbox-edge-midpoints="true"
     inkscape:bbox-nodes="true"
     inkscape:bbox-paths="true"
     inkscape:snap-bbox="true"
     inkscape:snap-page="true"
     units="px"
     showgrid="true"
     inkscape:document-rotation="0"
     inkscape:current-layer="layer1"
     inkscape:document-units="px"
     inkscape:cy="10.710965"
     inkscape:cx="5.0287266"
     inkscape:zoom="6.6657851"
     inkscape:pageshadow="2"
     inkscape:pageopacity="0.0"
     borderopacity="1.0"
     bordercolor="#666666"
     pagecolor="#ffffff"
     id="base">
    <inkscape:grid
       id="grid833"
       type="xygrid" />
  </sodipodi:namedview>
  <metadata
     id="metadata5">
    <rdf:RDF>
      <cc:Work
         rdf:about="">
        <dc:format>image/svg+xml</dc:format>
        <dc:type
           rdf:resource="http://purl.org/dc/dcmitype/StillImage" />
        <dc:title />
      </cc:Work>
    </rdf:RDF>
  </metadata>
  <g
     id="layer1"
     inkscape:groupmode="layer"
     inkscape:label="Ebene 1">
    <path
       transform="scale(0.26458334)"
       d="M 10.496094 2 C 5.813515 2 1.9999998 5.813515 2 10.496094 C 2 10.680301 2.0137267 10.861634 2.0253906 11.042969 C 2.0147478 11.188851 2 11.334166 2 11.482422 C 2 11.587701 2.011014 11.690645 2.015625 11.794922 L 2.0097656 11.794922 C 2.0137341 11.684839 2 11.725396 2 11.914062 L 2 16.494141 L 2 21.087891 A 1.0000006 0.91443445 0 0 1 2 21.089844 A 1.0000006 0.91443445 0 0 0 2.9960938 22 L 8.9980469 22 A 1.0000006 0.91443445 0 0 0 10 21.126953 L 10 22 L 10.001953 22 L 10.001953 21.089844 L 10.001953 20.144531 L 10 20.144531 L 10 18.964844 C 10.166194 18.974596 10.327521 19.001953 10.496094 19.001953 C 15.178669 19.001953 19.001953 15.178669 19.001953 10.496094 C 19.001953 10.328382 18.980235 10.166572 18.96875 10.001953 L 21.001953 10.001953 L 21.998047 10.001953 L 21.998047 10 L 21.042969 10 A 1.0000006 1.0000006 0 0 0 21.998047 8.9980469 L 21.998047 2.9960938 A 1.0000006 1.0000006 0 0 0 21.001953 2 A 1.0000006 1.0000006 0 0 0 21 2 L 15.976562 2 L 10.96875 2 C 10.762431 2 10.71751 2.0137086 10.837891 2.0097656 L 10.837891 2.015625 C 10.723858 2.0110328 10.61122 2 10.496094 2 z M 10.5 10 A 1.5000001 1.5000001 0 0 1 10.804688 10.03125 A 1.5000001 1.5000001 0 0 1 10.806641 10.03125 A 1.5000001 1.5000001 0 0 1 11.052734 10.105469 C 11.084421 10.117538 11.113995 10.132421 11.144531 10.146484 A 1.5000001 1.5000001 0 0 1 11.240234 10.195312 C 11.558265 10.370886 11.797225 10.656745 11.916016 11.007812 A 1.5000001 1.5000001 0 0 1 11.947266 11.105469 C 11.96144 11.159238 11.974062 11.213283 11.982422 11.269531 A 1.5000001 1.5000001 0 0 1 11.998047 11.449219 C 11.998646 11.467182 12.003906 11.483805 12.003906 11.501953 C 12.003906 11.526087 11.999104 11.548464 11.998047 11.572266 A 1.5000001 1.5000001 0 0 1 11.982422 11.726562 C 11.911117 12.222996 11.609025 12.624678 11.181641 12.835938 C 11.127792 12.862555 11.073178 12.886027 11.015625 12.90625 A 1.5000001 1.5000001 0 0 1 10.839844 12.960938 C 10.824727 12.964273 10.810223 12.967804 10.794922 12.970703 A 1.5000001 1.5000001 0 0 1 10.783203 12.972656 A 1.5000001 1.5000001 0 0 1 10.5 13 A 1.5000001 1.5000001 0 0 1 10.494141 13 A 1.5000001 1.5000001 0 0 1 10 12.914062 A 1.5000001 1.5000001 0 0 1 9.8027344 12.828125 L 9.796875 12.828125 C 9.7867412 12.822935 9.7795212 12.814001 9.7695312 12.808594 A 1.5000001 1.5000001 0 0 1 9.5273438 12.640625 C 9.4902187 12.609555 9.4556639 12.577513 9.421875 12.542969 A 1.5000001 1.5000001 0 0 1 9.2636719 12.347656 C 9.2352011 12.30608 9.2096983 12.263431 9.1855469 12.21875 A 1.5000001 1.5000001 0 0 1 9.0839844 11.992188 A 1.5000001 1.5000001 0 0 1 9.0820312 11.984375 C 9.0699911 11.948068 9.0581519 11.912659 9.0488281 11.875 A 1.5000001 1.5000001 0 0 1 9 11.519531 C 8.9999312 11.513409 8.9980469 11.508098 8.9980469 11.501953 C 8.9980469 11.49052 9.0017182 11.480111 9.0019531 11.46875 A 1.5000001 1.5000001 0 0 1 9.0234375 11.244141 C 9.0307657 11.199204 9.0417041 11.156606 9.0527344 11.113281 A 1.5000001 1.5000001 0 0 1 9.0859375 11.003906 C 9.0869909 11.000782 9.0868178 10.997255 9.0878906 10.994141 C 9.2345471 10.56839 9.5596131 10.241935 9.984375 10.09375 A 1.5000001 1.5000001 0 0 1 10.15625 10.041016 C 10.172077 10.037542 10.187089 10.032288 10.203125 10.029297 L 10.205078 10.029297 A 1.5000001 1.5000001 0 0 1 10.5 10 z "
       style="color:#000000;font-style:normal;font-variant:normal;font-weight:normal;font-stretch:normal;font-size:medium;line-height:normal;font-family:sans-serif;font-variant-ligatures:normal;font-variant-position:normal;font-variant-caps:normal;font-variant-numeric:normal;font-variant-alternates:normal;font-variant-east-asian:normal;font-feature-settings:normal;font-variation-settings:normal;text-indent:0;text-align:start;text-decoration:none;text-decoration-line:none;text-decoration-style:solid;text-decoration-color:#000000;letter-spacing:normal;word-spacing:normal;text-transform:none;writing-mode:lr-tb;direction:ltr;text-orientation:mixed;dominant-baseline:auto;baseline-shift:baseline;text-anchor:start;white-space:normal;shape-padding:0;shape-margin:0;inline-size:0;clip-rule:nonzero;display:inline;overflow:visible;visibility:visible;opacity:1;isolation:auto;mix-blend-mode:normal;color-interpolation:sRGB;color-interpolation-filters:linearRGB;solid-color:#000000;solid-opacity:1;vector-effect:none;fill:#000000;fill-opacity:1;fill-rule:nonzero;stroke:none;stroke-width:2;stroke-linecap:square;stroke-linejoin:miter;stroke-miterlimit:4;stroke-dasharray:none;stroke-dashoffset:0;stroke-opacity:1;color-rendering:auto;image-rendering:auto;shape-rendering:auto;text-rendering:auto;enable-background:accumulate;stop-color:#000000;stop-opacity:1"
       id="path1163" />
  </g>
</svg>
