<?xml version="1.0" encoding="UTF-8" standalone="no"?>
<!-- Created with Inkscape (http://www.inkscape.org/) -->

<svg
   xmlns:dc="http://purl.org/dc/elements/1.1/"
   xmlns:cc="http://creativecommons.org/ns#"
   xmlns:rdf="http://www.w3.org/1999/02/22-rdf-syntax-ns#"
   xmlns:svg="http://www.w3.org/2000/svg"
   xmlns="http://www.w3.org/2000/svg"
   xmlns:sodipodi="http://sodipodi.sourceforge.net/DTD/sodipodi-0.dtd"
   xmlns:inkscape="http://www.inkscape.org/namespaces/inkscape"
   width="2514.783"
   height="1000"
   viewBox="0 0 665.36964 264.58334"
   version="1.1"
   id="svg3411"
   inkscape:version="0.92.3 (2405546, 2018-03-11)"
   sodipodi:docname="logo wordmark dark.svg"
   inkscape:export-filename="C:\Users\FinnH\Documents\Schule\Anderes\Racing\Logos\Finals\Wordmark\logo wordmark dark.png"
   inkscape:export-xdpi="805"
   inkscape:export-ydpi="805">
  <defs
     id="defs3405" />
  <sodipodi:namedview
     id="base"
     pagecolor="#ffffff"
     bordercolor="#666666"
     borderopacity="1.0"
     inkscape:pageopacity="0.0"
     inkscape:pageshadow="2"
     inkscape:zoom="0.21914119"
     inkscape:cx="1226.7948"
     inkscape:cy="571.29103"
     inkscape:document-units="mm"
     inkscape:current-layer="layer1"
     showgrid="false"
     units="px"
     inkscape:snap-page="true"
     inkscape:snap-bbox="true"
     inkscape:bbox-nodes="true"
     inkscape:window-width="1280"
     inkscape:window-height="961"
     inkscape:window-x="-8"
     inkscape:window-y="44"
     inkscape:window-maximized="1"
     inkscape:snap-nodes="false"
     inkscape:snap-others="false" />
  <metadata
     id="metadata3408">
    <rdf:RDF>
      <cc:Work
         rdf:about="">
        <dc:format>image/svg+xml</dc:format>
        <dc:type
           rdf:resource="http://purl.org/dc/dcmitype/StillImage" />
        <dc:title />
      </cc:Work>
    </rdf:RDF>
  </metadata>
  <g
     inkscape:label="Ebene 1"
     inkscape:groupmode="layer"
     id="layer1"
     transform="translate(0,-32.416658)">
    <g
       style="fill:#e8f0f5;fill-opacity:1;stroke-width:0.11586469"
       id="g1228"
       transform="matrix(8.6307607,0,0,8.6307607,-8380.2013,-5814.7395)"
       inkscape:export-xdpi="381.81445"
       inkscape:export-ydpi="381.81445">
      <g
         style="fill:#e8f0f5;fill-opacity:1;stroke-width:0.21300167"
         id="g1391"
         transform="matrix(0.54396142,0,0,0.54396142,952.54617,633.73748)">
        <path
           inkscape:connector-curvature="0"
           id="path1375"
           style="font-style:normal;font-variant:normal;font-weight:bold;font-stretch:normal;font-size:15.9124012px;line-height:1.25;font-family:sans-serif;-inkscape-font-specification:'sans-serif, Bold';font-variant-ligatures:normal;font-variant-caps:normal;font-variant-numeric:normal;font-feature-settings:normal;text-align:start;letter-spacing:0px;word-spacing:0px;writing-mode:lr-tb;text-anchor:start;fill:#e8f0f5;fill-opacity:1;stroke:none;stroke-width:0.0563567"
           d="m 51.5808,104.23183 q 0.707788,-0.0359 1.102513,-0.36639 0.394725,-0.33049 0.451597,-0.93878 0.05614,-0.60048 -0.280255,-0.89388 -0.335666,-0.3012 -1.043454,-0.2653 l -1.656689,0.084 -0.230401,2.46434 z m -0.375002,5.08733 q 0.902234,-0.0458 1.389078,-0.45077 0.494622,-0.40541 0.566804,-1.17747 0.07073,-0.75647 -0.345394,-1.10791 -0.415391,-0.35925 -1.325403,-0.31309 l -1.757802,0.0892 -0.285085,3.04924 z m 3.176019,-4.32907 q 0.938209,0.23183 1.396382,0.96146 0.45817,0.72964 0.355365,1.82923 -0.15749,1.68449 -1.370347,2.56874 -1.212858,0.88425 -3.530668,1.00181 l -4.970068,0.25211 1.088574,-11.643254 4.495618,-0.228035 q 2.418922,-0.122698 3.431511,0.555519 1.020366,0.67784 0.869439,2.29214 -0.07947,0.85004 -0.532288,1.47065 -0.452085,0.61282 -1.233518,0.93963 z" />
        <path
           inkscape:connector-curvature="0"
           id="path1377"
           style="font-style:normal;font-variant:normal;font-weight:bold;font-stretch:normal;font-size:15.9124012px;line-height:1.25;font-family:sans-serif;-inkscape-font-specification:'sans-serif, Bold';font-variant-ligatures:normal;font-variant-caps:normal;font-variant-numeric:normal;font-feature-settings:normal;text-align:start;letter-spacing:0px;word-spacing:0px;writing-mode:lr-tb;text-anchor:start;fill:#e8f0f5;fill-opacity:1;stroke:none;stroke-width:0.0563567"
           d="m 59.484556,99.344731 2.994486,-0.151893 -0.876401,9.373862 5.25785,-0.2667 -0.212174,2.26938 -8.252335,0.4186 z" />
        <path
           inkscape:connector-curvature="0"
           id="path1379"
           style="font-style:normal;font-variant:normal;font-weight:bold;font-stretch:normal;font-size:15.9124012px;line-height:1.25;font-family:sans-serif;-inkscape-font-specification:'sans-serif, Bold';font-variant-ligatures:normal;font-variant-caps:normal;font-variant-numeric:normal;font-feature-settings:normal;text-align:start;letter-spacing:0px;word-spacing:0px;writing-mode:lr-tb;text-anchor:start;fill:#e8f0f5;fill-opacity:1;stroke:none;stroke-width:0.0563567"
           d="m 69.06691,98.633589 2.994486,-0.151893 -0.652562,6.979724 q -0.134886,1.44272 0.273457,2.04294 0.416851,0.59202 1.48242,0.53797 1.073349,-0.0545 1.597622,-0.69421 0.532782,-0.64795 0.667668,-2.09067 l 0.652562,-6.979723 2.994486,-0.151893 -0.652562,6.979716 q -0.231131,2.47214 -1.580829,3.74365 -1.349696,1.2715 -3.885287,1.40012 -2.527812,0.12822 -3.651484,-1.01782 -1.123669,-1.14605 -0.892539,-3.61819 z" />
        <path
           inkscape:connector-curvature="0"
           id="path1381"
           style="font-style:normal;font-variant:normal;font-weight:bold;font-stretch:normal;font-size:15.9124012px;line-height:1.25;font-family:sans-serif;-inkscape-font-specification:'sans-serif, Bold';font-variant-ligatures:normal;font-variant-caps:normal;font-variant-numeric:normal;font-feature-settings:normal;text-align:start;letter-spacing:0px;word-spacing:0px;writing-mode:lr-tb;text-anchor:start;fill:#e8f0f5;fill-opacity:1;stroke:none;stroke-width:0.0563567"
           d="m 82.009355,98.202182 8.081224,-0.409912 -0.212174,2.26938 -5.086738,0.25802 -0.202694,2.168 4.783399,-0.24264 -0.212173,2.26938 -4.7834,0.24264 -0.249359,2.66711 5.257851,-0.2667 -0.212173,2.26938 -8.252337,0.41859 z" />
        <path
           inkscape:connector-curvature="0"
           id="path1383"
           style="font-style:normal;font-variant:normal;font-weight:bold;font-stretch:normal;font-size:15.9124012px;line-height:1.25;font-family:sans-serif;-inkscape-font-specification:'sans-serif, Bold';font-variant-ligatures:normal;font-variant-caps:normal;font-variant-numeric:normal;font-feature-settings:normal;text-align:start;letter-spacing:0px;word-spacing:0px;writing-mode:lr-tb;text-anchor:start;fill:#e8f0f5;fill-opacity:1;stroke:none;stroke-width:0.0563567"
           d="m 113.28374,101.75398 q 0.94113,-0.0477 1.37839,-0.41919 0.44503,-0.37185 0.52013,-1.1751 0.0744,-0.795449 -0.30577,-1.117679 -0.37237,-0.322623 -1.3135,-0.274885 l -1.26001,0.06391 -0.27925,2.986854 z m -1.45396,2.13834 -0.41195,4.40618 -2.99449,0.15189 1.08857,-11.643253 4.5734,-0.231981 q 2.29448,-0.116385 3.28787,0.601619 1.00116,0.71762 0.84513,2.386511 -0.10791,1.154194 -0.73718,1.923454 -0.6215,0.76887 -1.77432,1.17662 0.60132,0.10921 1.03689,0.58386 0.44407,0.46645 0.8478,1.44722 l 1.31644,3.22413 -3.18894,0.16175 -1.14507,-2.82146 q -0.34613,-0.85174 -0.75957,-1.14898 -0.40567,-0.29765 -1.13679,-0.26057 z" />
        <path
           inkscape:connector-curvature="0"
           id="path1385"
           style="font-style:normal;font-variant:normal;font-weight:bold;font-stretch:normal;font-size:15.9124012px;line-height:1.25;font-family:sans-serif;-inkscape-font-specification:'sans-serif, Bold';font-variant-ligatures:normal;font-variant-caps:normal;font-variant-numeric:normal;font-feature-settings:normal;text-align:start;letter-spacing:0px;word-spacing:0px;writing-mode:lr-tb;text-anchor:start;fill:#e8f0f5;fill-opacity:1;stroke:none;stroke-width:0.0563567"
           d="m 125.5417,101.13221 q 0.94111,-0.0477 1.37838,-0.41919 0.44503,-0.37185 0.52013,-1.175092 0.0744,-0.795451 -0.30577,-1.117681 -0.37237,-0.322623 -1.31349,-0.274885 l -1.26002,0.06391 -0.27926,2.986848 z m -1.45397,2.13833 -0.41195,4.40618 -2.99449,0.1519 1.08857,-11.643247 4.5734,-0.231981 q 2.29447,-0.116385 3.28787,0.601619 1.00116,0.71762 0.84513,2.386511 -0.10791,1.154178 -0.73718,1.923448 -0.6215,0.76887 -1.77432,1.17662 0.60133,0.10921 1.03689,0.58386 0.44407,0.46645 0.84779,1.44722 l 1.31644,3.22413 -3.18893,0.16175 -1.14507,-2.82146 q -0.34613,-0.85174 -0.75957,-1.14899 -0.40568,-0.29765 -1.13679,-0.26056 z" />
        <path
           inkscape:connector-curvature="0"
           id="path1387"
           style="font-style:normal;font-variant:normal;font-weight:bold;font-stretch:normal;font-size:15.9124012px;line-height:1.25;font-family:sans-serif;-inkscape-font-specification:'sans-serif, Bold';font-variant-ligatures:normal;font-variant-caps:normal;font-variant-numeric:normal;font-feature-settings:normal;text-align:start;letter-spacing:0px;word-spacing:0px;writing-mode:lr-tb;text-anchor:start;fill:#e8f0f5;fill-opacity:1;stroke:none;stroke-width:0.0563567"
           d="m 139.14858,97.046216 q -1.3689,0.06944 -2.21814,1.121523 -0.84924,1.052078 -1.02131,2.892541 -0.17134,1.83266 0.48832,2.80821 0.65967,0.97554 2.02858,0.9061 1.37669,-0.0698 2.22593,-1.12191 0.84923,-1.05209 1.02058,-2.88474 0.17207,-1.840466 -0.4876,-2.816006 -0.65966,-0.97555 -2.03636,-0.905718 z m 0.20343,-2.175795 q 2.80004,-0.14203 4.23653,1.383987 1.4365,1.526017 1.17183,4.356902 -0.26395,2.82308 -2.00084,4.51006 -1.73688,1.68699 -4.53693,1.82902 -2.79226,0.14163 -4.23652,-1.38399 -1.4365,-1.52602 -1.17256,-4.3491 0.26468,-2.830884 2.00157,-4.517867 1.74466,-1.687377 4.53692,-1.829012 z" />
        <path
           inkscape:connector-curvature="0"
           id="path1389"
           style="font-style:normal;font-variant:normal;font-weight:bold;font-stretch:normal;font-size:15.9124012px;line-height:1.25;font-family:sans-serif;-inkscape-font-specification:'sans-serif, Bold';font-variant-ligatures:normal;font-variant-caps:normal;font-variant-numeric:normal;font-feature-settings:normal;text-align:start;letter-spacing:0px;word-spacing:0px;writing-mode:lr-tb;text-anchor:start;fill:#e8f0f5;fill-opacity:1;stroke:none;stroke-width:0.0563567"
           d="m 146.57354,94.927226 2.87004,-0.14558 1.2156,8.359644 2.78223,-8.56243 2.8856,-0.146369 1.20004,8.360439 2.79779,-8.563225 2.84671,-0.144396 -3.8264,11.782121 -3.45337,0.17517 -1.28026,-8.74445 -2.91203,8.9571 -3.45338,0.17517 z" />
      </g>
      <path
         inkscape:export-ydpi="96"
         inkscape:export-xdpi="96"
         style="color:#000000;font-style:normal;font-variant:normal;font-weight:bold;font-stretch:normal;font-size:10.50547409px;line-height:1.25;font-family:Verdana;-inkscape-font-specification:'Verdana, Bold';font-variant-ligatures:normal;font-variant-position:normal;font-variant-caps:normal;font-variant-numeric:normal;font-variant-alternates:normal;font-feature-settings:normal;text-indent:0;text-align:start;text-decoration:none;text-decoration-line:none;text-decoration-style:solid;text-decoration-color:#000000;letter-spacing:0px;word-spacing:0px;text-transform:none;writing-mode:lr-tb;direction:ltr;text-orientation:mixed;dominant-baseline:auto;baseline-shift:baseline;text-anchor:start;white-space:normal;shape-padding:0;clip-rule:nonzero;display:inline;overflow:visible;visibility:visible;opacity:1;isolation:auto;mix-blend-mode:normal;color-interpolation:sRGB;color-interpolation-filters:linearRGB;solid-color:#000000;solid-opacity:1;vector-effect:none;fill:#e8f0f5;fill-opacity:1;fill-rule:nonzero;stroke:none;stroke-width:0.30657795;stroke-linecap:round;stroke-linejoin:round;stroke-miterlimit:4;stroke-dasharray:none;stroke-dashoffset:0;stroke-opacity:1;color-rendering:auto;image-rendering:auto;shape-rendering:auto;text-rendering:auto;enable-background:accumulate"
         d="m 1008.7945,685.86843 c -0.1801,0.002 -0.3447,0.10222 -0.4285,0.2616 l -3.2585,6.19673 c -0.1762,0.33617 0.081,0.73632 0.4596,0.71615 l 0.172,-0.009 1.0052,-0.0542 c -0.053,0.4694 -0.1823,1.18513 -0.7089,2.11809 -0.7771,1.37681 -2.2979,2.85713 -5.5702,3.25699 -0.62741,0.0846 -0.53024,1.01961 0.1012,0.97341 0.01,-5.4e-4 0.011,-0.003 0.018,-0.004 v 0.002 c 0.024,-0.003 0.039,-0.0114 0.063,-0.0145 3.4327,-0.31795 5.462,-2.00568 6.5675,-3.62048 0.8909,-1.30152 1.1473,-2.34861 1.2422,-2.80534 l 1.4583,-0.0788 c 0.2942,-0.0163 0.5074,-0.28683 0.4546,-0.57667 l -1.0891,-5.96043 c -0.043,-0.23446 -0.248,-0.40408 -0.4863,-0.40179 z"
         id="path1393"
         inkscape:connector-curvature="0"
         sodipodi:nodetypes="ccccccccccccccccccc" />
      <text
         inkscape:export-ydpi="96"
         inkscape:export-xdpi="96"
         xml:space="preserve"
         style="font-style:normal;font-variant:normal;font-weight:bold;font-stretch:normal;font-size:5.4671979px;line-height:1.25;font-family:'Sitka Heading';-inkscape-font-specification:'Sitka Heading, Bold';font-variant-ligatures:normal;font-variant-caps:normal;font-variant-numeric:normal;font-feature-settings:normal;text-align:start;letter-spacing:0px;word-spacing:0px;writing-mode:lr-tb;text-anchor:start;fill:#e8f0f5;fill-opacity:1;stroke:none;stroke-width:0.03065587"
         x="1279.1937"
         y="771.91333"
         id="text1397"
         transform="matrix(0.99662726,-0.07504836,-0.37838717,1.0318776,0,0)"><tspan
           sodipodi:role="line"
           id="tspan1395"
           x="1279.1937"
           y="771.91333"
           style="font-style:normal;font-variant:normal;font-weight:bold;font-stretch:normal;font-size:5.4671979px;font-family:'Sitka Heading';-inkscape-font-specification:'Sitka Heading, Bold';font-variant-ligatures:normal;font-variant-caps:normal;font-variant-numeric:normal;font-feature-settings:normal;text-align:start;writing-mode:lr-tb;text-anchor:start;fill:#e8f0f5;fill-opacity:1;stroke-width:0.03065587">Racing</tspan></text>
    </g>
    <path
       inkscape:connector-curvature="0"
       id="path2115"
       d="M 3.1799971e-8,32.465567 V 297.00003 H 665.24463 V 32.465567 Z M 607.00272,96.620419 l -17.9618,55.303351 -16.20927,0.82496 -6.00657,-41.04719 -13.67198,42.046 -16.2092,0.82062 -7.84826,-53.99672 13.47136,-0.682563 5.70333,39.241183 13.06102,-40.190983 13.54714,-0.686886 5.63196,39.241099 13.13248,-40.195404 z m -108.6177,3.643221 c 7.20006,0.18206 12.76652,2.35912 16.69976,6.53724 4.49526,4.77511 6.32645,11.59581 5.49824,20.45439 -0.82582,8.83414 -3.95595,15.88897 -9.39117,21.16793 -5.43515,5.27913 -12.5351,8.13959 -21.29719,8.58407 -8.73776,0.44267 -15.36424,-1.72323 -19.88374,-6.49711 -4.49501,-4.77529 -6.32861,-11.58012 -5.50262,-20.41436 0.8284,-8.85856 3.95584,-15.92452 9.39107,-21.20355 5.45948,-5.28027 12.55942,-8.14082 21.29728,-8.58401 1.09503,-0.0518 2.15969,-0.0689 3.18837,-0.0431 z m -171.92093,4.57068 c 2.05632,-0.0179 3.82772,1.44623 4.19617,3.46932 l 9.40006,51.43259 c 0.45647,2.50116 -1.38558,4.83584 -3.92411,4.97651 l -12.58394,0.67824 c -0.81889,3.9411 -3.03201,12.97828 -10.71994,24.20918 -9.53882,13.9343 -27.04644,28.49776 -56.66788,31.24129 -0.20278,0.026 -0.33999,0.0993 -0.54364,0.12519 v -0.0179 c -0.0604,0.009 -0.0958,0.0346 -0.1562,0.0346 -5.44877,0.39866 -6.28812,-7.67111 -0.87396,-8.40114 28.23699,-3.45053 41.35982,-16.22146 48.06584,-28.10203 4.54436,-8.05072 5.66504,-14.22795 6.11814,-18.27838 l -8.67322,0.46856 -1.4849,0.0777 c -3.27043,0.17429 -5.48492,-3.27967 -3.9643,-6.18052 L 322.7677,107.097 c 0.72312,-1.37531 2.14261,-2.23908 3.69663,-2.25635 z m 110.26766,0.4815 c 5.83726,-0.0346 10.1181,0.93253 12.83816,2.89851 3.13289,2.24555 4.45254,5.97912 3.96422,11.20156 -0.3374,3.61171 -1.49121,6.62268 -3.46038,9.02995 -1.94482,2.40596 -4.71787,4.24457 -8.32536,5.52048 1.88176,0.34171 3.50203,1.25708 4.86501,2.74242 1.38963,1.45969 2.71428,3.72234 3.97769,6.79145 l 6.18042,15.13453 -14.96963,0.7585 -5.37334,-13.24389 c -1.08313,-2.66528 -2.26911,-4.461 -3.5629,-5.39112 -1.2695,-0.93135 -3.04987,-1.34235 -5.33771,-1.2263 l -3.98207,0.20539 -1.93085,20.68184 -14.05547,0.71363 5.11027,-54.65219 21.46665,-1.08806 c 0.89752,-0.0431 1.76139,-0.0689 2.59529,-0.0777 z m -57.53735,2.91637 c 5.83726,-0.0346 10.11817,0.93256 12.83816,2.89844 3.13289,2.24565 4.45245,5.97922 3.96422,11.20163 -0.3374,3.61183 -1.49119,6.62268 -3.46036,9.02986 -1.94484,2.40606 -4.72237,4.24908 -8.32987,5.52506 1.88174,0.34171 3.50653,1.25259 4.8695,2.73793 1.38963,1.45963 2.71428,3.72675 3.9776,6.79588 l 6.18052,15.13012 -14.96963,0.76282 -5.37335,-13.24389 c -1.08313,-2.66537 -2.27361,-4.46557 -3.56737,-5.3957 -1.26943,-0.93144 -3.0454,-1.33786 -5.33322,-1.22181 l -3.98209,0.2002 -1.93085,20.68193 -14.05547,0.71364 5.11027,-54.65238 21.46665,-1.08796 c 0.89752,-0.0431 1.76139,-0.0689 2.59529,-0.0777 z m 116.6087,2.2831 c -0.50307,-0.026 -1.02221,-0.026 -1.56075,0.005 -4.28367,0.21744 -7.75481,1.96977 -10.41224,5.26185 -2.65759,3.29227 -4.25527,7.81901 -4.79373,13.57835 -0.53587,5.73484 0.22781,10.12861 2.29206,13.18142 2.06427,3.05272 5.23675,4.47135 9.52044,4.25408 4.30807,-0.21833 7.79044,-1.9741 10.44795,-5.26627 2.65751,-3.29227 4.25754,-7.80781 4.79365,-13.54271 0.53846,-5.75934 -0.2235,-10.16443 -2.28757,-13.21715 -1.80626,-2.67114 -4.47567,-4.08743 -7.99981,-4.25408 z m -231.83499,3.50497 -0.99442,10.6531 -23.87911,1.2129 -0.94981,10.1759 22.4522,-1.14156 -0.99443,10.6531 -22.4522,1.14153 -1.17277,12.51707 24.68179,-1.25305 -0.99882,10.65309 -38.73285,1.96649 5.11025,-54.65219 z m -51.69578,1.56515 -3.06342,32.76193 c -0.72312,7.73601 -3.19667,13.59492 -7.42017,17.57382 -4.22362,3.97889 -10.30379,6.17041 -18.23818,6.57289 -7.91023,0.40126 -13.62063,-1.18987 -17.13684,-4.77587 -3.51636,-3.58627 -4.91497,-9.24913 -4.19168,-16.98514 l 3.06352,-32.76193 14.05546,-0.71363 -3.06351,32.76193 c -0.42196,4.51459 0.008,7.709 1.28427,9.5873 1.30447,1.85259 3.6219,2.69745 6.95637,2.52833 3.35879,-0.16999 5.85977,-1.25762 7.50042,-3.25965 1.66724,-2.02757 2.71274,-5.3001 3.13488,-9.81475 l 3.06342,-32.76194 z m 221.4539,0.0888 c -0.62475,-0.0346 -1.30601,-0.0346 -2.04225,0.005 l -5.91302,0.29857 -1.31094,14.01974 5.91293,-0.29857 c 2.94494,-0.14921 5.10198,-0.80423 6.47029,-1.96649 1.39265,-1.16365 2.20423,-3.0025 2.4392,-5.51608 0.23299,-2.48924 -0.24161,-4.24018 -1.4314,-5.24849 -0.87387,-0.75679 -2.24971,-1.18797 -4.12481,-1.29317 z m -57.53735,2.9163 c -0.62475,-0.0346 -1.30601,-0.0346 -2.04233,0.005 l -5.91294,0.30288 -1.31092,14.01982 5.91284,-0.30287 c 2.94512,-0.1494 5.10205,-0.80426 6.47038,-1.9666 1.39256,-1.16363 2.20412,-3.00242 2.43918,-5.51609 0.23299,-2.48914 -0.24593,-4.23567 -1.43589,-5.244 -0.87395,-0.75676 -2.24616,-1.19158 -4.12032,-1.29763 z m -241.82802,2.00662 -4.11144,43.99921 24.67731,-1.25304 -0.99434,10.65307 -38.73733,1.96201 5.11025,-54.65219 z m -47.169727,2.44369 c 6.141951,-0.0604 10.600613,0.83616 13.373247,2.69339 3.19304,2.12113 4.55246,5.70853 4.08019,10.76009 -0.24852,2.66002 -1.0845,4.96081 -2.50166,6.90286 -1.41466,1.91766 -3.34274,3.38755 -5.788076,4.41019 2.935971,0.7257 5.121306,2.22949 6.555116,4.51275 1.43373,2.2832 1.98945,5.14305 1.66776,8.58401 -0.49274,5.27118 -2.63949,9.29062 -6.434666,12.05773 -3.795423,2.767 -9.317458,4.33656 -16.570406,4.7045 l -23.330741,1.18168 5.110353,-54.65228 21.100963,-1.07019 c 0.946176,-0.0518 1.860513,-0.0777 2.73792,-0.0863 z m -2.90292,9.64088 -7.7769,0.39262 -1.079082,11.56726 7.776926,-0.39262 c 2.214835,-0.11217 3.937466,-0.68689 5.17264,-1.72127 1.23525,-1.0342 1.940154,-2.50208 2.118106,-4.40567 0.175183,-1.87909 -0.263195,-3.27805 -1.31544,-4.19619 -1.050421,-0.94245 -2.681415,-1.35639 -4.89625,-1.24404 z m -1.502669,21.13219 -8.249606,0.41939 -1.337772,14.31407 8.249606,-0.41937 c 2.823278,-0.1433 4.995823,-0.85084 6.519293,-2.11811 1.547805,-1.26866 2.436263,-3.10898 2.662184,-5.52497 0.221773,-2.36723 -0.321016,-4.0997 -1.623134,-5.19949 -1.29991,-1.1241 -3.37297,-1.61596 -6.220571,-1.47152 z m 112.760266,38.28242 c 0.54279,-0.0431 1.01256,0.005 1.40913,0.1424 0.4099,0.1372 0.73004,0.34775 0.96769,0.62475 0.24247,0.26233 0.37794,0.59455 0.40556,0.9988 0.0431,0.38919 -0.0179,0.8379 -0.20538,1.34228 -0.19068,0.51947 -0.4746,1.00882 -0.84738,1.47152 -0.35896,0.46165 -0.76971,0.87284 -1.23966,1.23077 -0.47027,0.35811 -0.9782,0.65063 -1.52061,0.87395 -0.52896,0.22177 -1.04982,0.34863 -1.56516,0.38833 -0.48754,0.0346 -0.92918,-0.026 -1.31991,-0.17429 -0.37709,-0.15441 -0.68169,-0.37366 -0.91416,-0.66444 -0.21831,-0.29253 -0.35121,-0.64892 -0.40126,-1.0658 -0.0431,-0.43145 0.0258,-0.89984 0.20969,-1.40465 0.18552,-0.50479 0.45475,-0.97189 0.80252,-1.40464 0.36759,-0.44786 0.77142,-0.83962 1.2173,-1.16829 0.4513,-0.34259 0.93143,-0.61441 1.44028,-0.82065 0.52294,-0.20797 1.04499,-0.33134 1.56084,-0.37017 z m 55.1294,6.70224 -1.52511,3.16163 -5.04779,-0.41938 -0.0346,0.0888 c 0.29253,0.27267 0.50222,0.59369 0.62475,0.96318 0.12161,0.36932 0.18639,0.74901 0.19157,1.14163 0.0179,0.3909 -0.0179,0.79042 -0.0984,1.20393 -0.0777,0.39868 -0.1812,0.77316 -0.30806,1.1192 -0.3909,1.06751 -0.96172,2.06203 -1.70778,2.98776 -0.73176,0.92477 -1.62427,1.75058 -2.67554,2.47483 -1.03214,0.70931 -2.20173,1.29376 -3.50948,1.75688 -1.2885,0.44784 -2.67875,0.73088 -4.16932,0.84306 -0.73865,0.0604 -1.3987,0.0689 -1.97997,0.026 -0.56693,-0.0431 -1.02935,-0.10528 -1.39128,-0.19156 -0.15189,0.0777 -0.31323,0.18292 -0.48149,0.30805 -0.1537,0.1234 -0.30807,0.27094 -0.46338,0.43663 -0.14151,0.1648 -0.27613,0.35121 -0.40557,0.55744 -0.13022,0.20624 -0.23645,0.42456 -0.32101,0.65581 -0.11638,0.31755 -0.1691,0.58074 -0.1519,0.78957 0.0346,0.20797 0.11128,0.37622 0.22263,0.50825 0.12008,0.11727 0.27612,0.20365 0.47287,0.25887 0.19675,0.0604 0.41593,0.0897 0.65581,0.0984 l 6.66652,-0.49964 c 1.51847,-0.11484 2.70713,-0.0179 3.56736,0.29859 0.86033,0.31408 1.47817,0.75073 1.8551,1.311 0.3909,0.56004 0.57641,1.19635 0.55743,1.913 -0.0179,0.71709 -0.151,1.41344 -0.40126,2.09135 -0.45992,1.25493 -1.19513,2.42815 -2.20283,3.51387 -1.01298,1.10021 -2.20156,2.05778 -3.57186,2.87617 -1.3703,0.8189 -2.8823,1.48506 -4.53502,2.00221 -1.64401,0.53069 -3.33759,0.86317 -5.07903,0.99443 h -0.005 c -1.4906,0.11217 -2.81811,0.0949 -3.98209,-0.0604 -1.16916,-0.13631 -2.12233,-0.40904 -2.86728,-0.81633 -0.7309,-0.40815 -1.22775,-0.93841 -1.48937,-1.59189 -0.25284,-0.6403 -0.21315,-1.41458 0.11995,-2.32322 0.2537,-0.69207 0.57728,-1.3068 0.97656,-1.84172 0.39435,-0.52034 0.87982,-0.98372 1.44934,-1.39128 0.56434,-0.39261 1.22517,-0.74643 1.98876,-1.05681 0.77749,-0.31151 1.6642,-0.59885 2.65768,-0.86956 l 0.0431,-0.11128 c -0.40386,-0.0777 -0.80597,-0.22002 -1.20851,-0.41506 -0.38916,-0.19501 -0.72656,-0.45562 -1.01228,-0.78438 -0.27182,-0.33051 -0.46252,-0.72227 -0.56608,-1.17728 -0.0863,-0.47029 -0.0179,-1.00848 0.20538,-1.61416 0.22694,-0.62043 0.56865,-1.17192 1.01677,-1.65437 0.44784,-0.48238 0.94445,-0.90675 1.49826,-1.27089 0.55832,-0.37883 1.15191,-0.69637 1.77476,-0.95431 0.6282,-0.27181 1.22896,-0.49012 1.80599,-0.66012 l 0.0431,-0.10694 c -0.4237,-0.24852 -0.82667,-0.54191 -1.20401,-0.87853 -0.37798,-0.33568 -0.67741,-0.74297 -0.89632,-1.21731 -0.19934,-0.48928 -0.30375,-1.0462 -0.3167,-1.67664 -0.005,-0.64459 0.14491,-1.39645 0.45476,-2.24754 0.37538,-1.02402 0.96802,-2.00757 1.77476,-2.95195 0.80681,-0.94436 1.75162,-1.78752 2.83613,-2.52841 1.10367,-0.75592 2.31225,-1.37298 3.62536,-1.8506 1.33224,-0.49274 2.70816,-0.79388 4.12921,-0.9007 0.80768,-0.0604 1.60233,-0.0604 2.3768,0.009 0.79387,0.0518 1.52796,0.13631 2.20285,0.25457 z m -120.55065,0.97655 c 0.64546,0.005 1.23439,0.0346 1.76588,0.1026 1.08233,0.11485 1.96802,0.321 2.65767,0.61957 0.70414,0.2977 1.23741,0.67393 1.60087,1.12368 0.36846,0.43491 0.60835,0.91961 0.72226,1.45824 0.11395,0.53846 0.1234,1.10703 0.026,1.70339 -0.0966,0.59627 -0.25541,1.19574 -0.4772,1.8015 -0.44958,1.22601 -1.04257,2.30381 -1.77475,3.22851 -0.71793,0.92365 -1.49508,1.7316 -2.33219,2.42581 -0.83184,0.67998 -1.68621,1.25735 -2.56406,1.73014 -0.85859,0.45735 -1.64764,0.81459 -2.36782,1.07915 l 3.09027,10.14025 c 0.0518,0.15011 0.1225,0.30634 0.214,0.46857 0.0897,0.1614 0.19329,0.3141 0.31669,0.45906 0.1234,0.14492 0.25369,0.26839 0.39261,0.3702 0.1528,0.10107 0.3072,0.16569 0.45907,0.19589 l 2.56397,0.65063 -0.56176,1.534 -7.06336,0.53069 c -0.65496,0.0518 -1.17097,0.0431 -1.55186,-0.0346 -0.38055,-0.0689 -0.68687,-0.20365 -0.9141,-0.39694 -0.22174,-0.20797 -0.39347,-0.47546 -0.51774,-0.80252 -0.11816,-0.34171 -0.23988,-0.75331 -0.36155,-1.23516 l -2.52393,-9.46701 -2.51505,-0.56608 -3.58521,9.77903 c -0.12162,0.33222 -0.13901,0.59455 -0.0604,0.7844 0.0984,0.17518 0.26232,0.29425 0.49531,0.36155 l 2.80034,0.73608 -0.56609,1.53848 -14.12681,1.06129 0.55743,-1.534 3.24188,-1.19054 c 0.28218,-0.10528 0.54364,-0.26233 0.78439,-0.47721 0.25542,-0.21573 0.44094,-0.4858 0.55745,-0.80249 l 8.38783,-22.86693 c 0.11638,-0.31755 0.12251,-0.56952 0.0179,-0.7585 -0.10694,-0.18811 -0.26664,-0.31066 -0.47719,-0.36587 l -2.52833,-0.75333 0.56606,-1.53839 13.53823,-1.02117 c 0.75937,-0.0604 1.46384,-0.0777 2.10923,-0.0777 z m 85.83112,1.0524 c 0.94731,-0.0689 1.77648,0.005 2.49269,0.23214 0.73003,0.22523 1.28669,0.6256 1.67224,1.19953 0.3909,0.56004 0.58506,1.3118 0.57988,2.25195 -0.008,0.94013 -0.25715,2.07876 -0.74901,3.42014 l -4.13819,11.29526 c -0.12684,0.34604 -0.14331,0.60577 -0.0431,0.78009 0.11217,0.17338 0.27267,0.30892 0.48149,0.40557 l 1.66327,0.67305 -0.54881,1.49379 -11.68323,0.87853 0.54881,-1.48937 2.24745,-0.97216 c 0.27355,-0.11919 0.52638,-0.27786 0.76282,-0.4772 0.25542,-0.21574 0.44871,-0.49703 0.57557,-0.84305 l 3.32212,-9.0656 c 0.35984,-0.98087 0.63424,-1.83472 0.82064,-2.56405 0.19156,-0.74384 0.24592,-1.34882 0.1605,-1.81937 -0.069,-0.48581 -0.28996,-0.8422 -0.66877,-1.06579 -0.37881,-0.22349 -0.95454,-0.30806 -1.73461,-0.24937 -0.33397,0.0258 -0.69207,0.0689 -1.07029,0.1424 -0.37277,0.0604 -0.75936,0.16658 -1.15492,0.32101 -0.39088,0.14151 -0.78956,0.34602 -1.19952,0.61525 -0.40471,0.25456 -0.80512,0.59368 -1.20395,1.01668 l -4.88737,13.32863 c -0.11638,0.31756 -0.1225,0.55744 -0.0179,0.71793 0.1234,0.14492 0.28304,0.27268 0.48582,0.38315 l 1.41364,0.69119 -0.54883,1.49388 -11.72335,0.88293 0.54449,-1.49388 2.53732,-0.99442 c 0.28735,-0.11996 0.54881,-0.27699 0.78438,-0.47719 0.25025,-0.20106 0.43319,-0.45562 0.54364,-0.7585 l 5.03,-13.7166 c 0.13201,-0.36068 0.1415,-0.64114 0.0258,-0.84307 -0.0965,-0.21745 -0.31408,-0.38484 -0.65148,-0.4996 l -1.69002,-0.65152 0.49014,-1.33777 9.46251,-2.20733 -1.3155,3.58972 0.10694,-0.005 c 0.88664,-0.86625 1.70993,-1.57024 2.47491,-2.10472 0.77057,-0.5488 1.4874,-0.97267 2.15383,-1.27538 0.67997,-0.30374 1.31508,-0.5186 1.90401,-0.64632 0.60318,-0.1295 1.18633,-0.21659 1.7436,-0.25887 z m 21.23929,0.52208 c -0.52897,0.0431 -1.03161,0.19847 -1.51165,0.47287 -0.47978,0.2744 -0.93091,0.65237 -1.35115,1.13265 -0.42025,0.48064 -0.81373,1.04922 -1.17728,1.70788 -0.3581,0.64374 -0.67824,1.35703 -0.96318,2.13597 -0.30634,0.83616 -0.51948,1.5799 -0.63768,2.23408 -0.11817,0.65409 -0.13542,1.21058 -0.0604,1.66776 0.0906,0.45647 0.28045,0.79991 0.57557,1.03005 0.29511,0.23039 0.71449,0.32619 1.25744,0.28563 0.57123,-0.0431 1.10141,-0.21574 1.59197,-0.52208 0.50481,-0.30459 0.96207,-0.70153 1.37343,-1.19504 0.43057,-0.50912 0.82233,-1.10279 1.17725,-1.77483 0.35985,-0.68601 0.68603,-1.42294 0.97657,-2.21622 0.2908,-0.79301 0.48235,-1.50284 0.57556,-2.127 0.11306,-0.6394 0.11906,-1.17373 0.0179,-1.60087 -0.10107,-0.42714 -0.302,-0.74729 -0.6023,-0.96318 -0.3003,-0.21572 -0.7145,-0.30721 -1.24414,-0.26751 z m -109.97333,1.40464 c -0.35984,-0.026 -0.7585,-0.026 -1.19064,0.005 l -2.50608,0.18724 -4.2363,11.55387 c 0.11485,0.0179 0.28995,0.0346 0.53069,0.0431 0.24594,-0.008 0.51258,-0.005 0.79389,0.005 0.28217,0.008 0.55227,0.005 0.81114,0 0.27354,-0.008 0.49271,-0.0179 0.66012,-0.0346 v 0.009 c 0.84996,-0.0604 1.65058,-0.28561 2.39907,-0.66444 0.75418,-0.39348 1.4365,-0.88757 2.04683,-1.48041 0.62389,-0.59368 1.16373,-1.25743 1.62314,-1.99324 0.47374,-0.73694 0.84911,-1.47964 1.12377,-2.22968 0.74038,-2.01938 0.81371,-3.45924 0.21831,-4.31205 -0.43577,-0.64028 -1.19357,-1.00107 -2.2742,-1.08805 z m 67.56162,0.10693 -6.7825,18.50135 c -0.11638,0.31756 -0.12595,0.5609 -0.0258,0.73608 0.11216,0.17338 0.27526,0.2977 0.49531,0.36587 l 2.08696,0.68256 -0.54882,1.49388 -12.72666,0.95868 0.55312,-1.49379 2.84503,-1.05688 c 0.30977,-0.10783 0.58419,-0.26319 0.82062,-0.4634 0.23558,-0.20018 0.40989,-0.45905 0.52639,-0.77574 l 4.96761,-13.54264 c 0.12684,-0.34602 0.13972,-0.61784 0.0346,-0.82063 -0.0967,-0.21746 -0.32274,-0.38572 -0.67308,-0.49963 l -1.89073,-0.71794 0.49532,-1.34225 z m -17.38197,0.93204 c 0.78006,-0.0604 1.46686,-0.0431 2.0601,0.0346 0.59886,0.0689 1.11825,0.16731 1.55627,0.30289 0.45216,0.13381 0.82667,0.28561 1.12817,0.45906 0.32187,0.15798 0.58591,0.29512 0.78956,0.40557 l -2.35446,4.8695 -0.98552,0.0776 c -0.37277,-0.35033 -0.78353,-0.69896 -1.23967,-1.04351 -0.4513,-0.35898 -0.92227,-0.67826 -1.41353,-0.96318 -0.49101,-0.28563 -1.00831,-0.50827 -1.54739,-0.66444 -0.51946,-0.17179 -1.04446,-0.23645 -1.57402,-0.1959 -0.33395,0.0258 -0.66531,0.1381 -0.99891,0.34775 -0.33394,0.20797 -0.74297,0.54192 -1.22181,0.99893 -0.25195,0.24334 -0.53673,0.57383 -0.85168,0.98992 -0.3098,0.40212 -0.63166,0.88181 -0.97207,1.44029 -0.32618,0.55743 -0.66101,1.18753 -0.9989,1.88632 -0.33222,0.68429 -0.64891,1.43417 -0.94983,2.25635 -0.49185,1.3414 -0.81026,2.52437 -0.95419,3.5451 -0.12519,1.00521 -0.0518,1.84257 0.20019,2.51047 0.27008,0.66703 0.73002,1.1564 1.38678,1.47162 0.6705,0.31409 1.5655,0.42714 2.68003,0.34343 0.54278,-0.0431 1.0872,-0.14401 1.63651,-0.31237 0.54968,-0.16748 1.07372,-0.35899 1.57413,-0.57988 0.52033,-0.23558 1.00702,-0.48237 1.45375,-0.74037 0.4608,-0.25975 0.88147,-0.50223 1.26193,-0.72658 l 0.66874,-0.0518 -0.77143,2.09584 c -0.64113,0.45475 -1.35011,0.92926 -2.12698,1.42252 -0.77146,0.4789 -1.58345,0.91899 -2.43481,1.31998 -0.8517,0.40125 -1.74197,0.74125 -2.67106,1.02109 -0.92055,0.29425 -1.8531,0.47719 -2.80041,0.5488 v -0.005 c -1.5742,0.11817 -2.87323,-0.0604 -3.89285,-0.52638 -1.00046,-0.48581 -1.74006,-1.18676 -2.21623,-2.10464 -0.45648,-0.9334 -0.66012,-2.04217 -0.61094,-3.32213 0.069,-1.29566 0.38056,-2.69962 0.93645,-4.21402 0.40211,-1.09626 0.91296,-2.16876 1.52503,-3.21064 0.62646,-1.043 1.33517,-2.0187 2.13156,-2.93425 0.81543,-0.93084 1.70079,-1.79029 2.6532,-2.57734 0.95248,-0.78698 1.95975,-1.47482 3.02778,-2.06022 1.06811,-0.58505 2.18436,-1.06309 3.34896,-1.43139 1.1645,-0.36846 2.35532,-0.59627 3.56737,-0.68687 z m -23.82571,1.7926 c 0.50136,0.0179 0.99596,0.0689 1.47602,0.1424 0.96558,0.13722 1.75584,0.45045 2.37679,0.93643 0.62648,0.47203 1.02705,1.14906 1.20394,2.03346 0.18207,0.8699 0.0179,1.99877 -0.50825,3.38452 l -4.11134,10.99643 c -0.0864,0.2304 -0.13023,0.43749 -0.12951,0.61957 0.0179,0.18122 0.0689,0.33911 0.15189,0.47287 0.10528,0.11817 0.25026,0.21056 0.42802,0.28132 0.18206,0.0604 0.41247,0.0777 0.69118,0.0518 0.19502,-0.0179 0.47807,-0.0689 0.8474,-0.14759 0.37448,-0.0984 0.72829,-0.19848 1.06128,-0.29427 l 0.52206,-0.0431 -0.64201,1.75241 c -0.2813,0.17518 -0.66702,0.38657 -1.15044,0.63335 -0.46423,0.23127 -0.97326,0.45823 -1.5295,0.68258 -0.55657,0.22435 -1.12187,0.42369 -1.69899,0.59281 -0.57728,0.16999 -1.09648,0.26839 -1.55626,0.30288 -0.69637,0.0518 -1.30472,0.0346 -1.82826,-0.0518 -0.50998,-0.0879 -0.91838,-0.25629 -1.22187,-0.49963 -0.2839,-0.25888 -0.4513,-0.61526 -0.49963,-1.07468 -0.0346,-0.45992 0.069,-1.02996 0.32101,-1.70788 l -0.1026,0.005 c -0.83099,0.86205 -1.64186,1.56378 -2.4347,2.10031 -0.77921,0.53588 -1.52139,0.95621 -2.2296,1.26194 -0.70327,0.29081 -1.36772,0.49358 -1.99324,0.61094 -0.6118,0.11638 -1.15406,0.19157 -1.62763,0.22781 l 0.005,0.009 c -0.90555,0.0689 -1.65801,-0.0431 -2.26083,-0.3167 -0.59715,-0.29166 -1.05087,-0.69809 -1.36004,-1.22188 -0.29512,-0.52465 -0.45045,-1.14464 -0.45908,-1.8595 -0.009,-0.71449 0.12685,-1.4596 0.41507,-2.23847 0.33912,-0.92314 0.79732,-1.76517 1.37349,-2.52393 0.58162,-0.77318 1.23146,-1.45885 1.95311,-2.06012 0.72141,-0.60145 1.49311,-1.12886 2.30984,-1.5831 0.83099,-0.45561 1.6517,-0.83358 2.46595,-1.13257 0.83358,-0.31495 1.64067,-0.56089 2.42141,-0.73176 0.79994,-0.18638 1.53021,-0.30288 2.185,-0.35205 0.139,-0.009 0.33739,-0.0179 0.59713,-0.026 0.27353,-0.005 0.55227,-0.008 0.83357,0 0.28217,0.008 0.54796,0.0179 0.80251,0.026 0.27353,-0.005 0.47719,-0.008 0.61094,-0.005 l 1.02557,-2.74681 c 0.25972,-0.70673 0.43146,-1.30508 0.51257,-1.78812 0.10107,-0.49878 0.0915,-0.88355 -0.026,-1.15493 -0.1026,-0.27269 -0.30977,-0.45907 -0.62475,-0.56175 -0.31496,-0.1026 -0.73691,-0.13292 -1.2664,-0.094 -0.57125,0.0431 -1.23725,0.23041 -1.99774,0.57124 -0.75504,0.32361 -1.52985,0.71191 -2.31882,1.16383 -0.78352,0.43748 -1.53986,0.89336 -2.26971,1.36901 -0.72485,0.46165 -1.3332,0.84738 -1.82385,1.15042 l -0.93635,0.0689 1.1148,-4.65103 c 0.64199,-0.27267 1.31378,-0.53931 2.02,-0.8025 0.7119,-0.27785 1.45563,-0.53155 2.22958,-0.7585 0.79301,-0.24247 1.61564,-0.44784 2.46594,-0.62475 0.84998,-0.17607 1.73378,-0.30029 2.65329,-0.37018 0.52206,-0.0431 1.03273,-0.0518 1.53392,-0.0346 z m -3.02329,11.25057 c -1.00306,0.0777 -1.94708,0.22608 -2.82717,0.44612 -0.86619,0.21919 -1.6549,0.53156 -2.37232,0.93643 -0.6981,0.38918 -1.3105,0.87621 -1.83722,1.46264 -0.51259,0.58593 -0.91642,1.28359 -1.21292,2.09136 -0.25369,0.69205 -0.37363,1.25208 -0.35636,1.68561 0.026,0.43231 0.13111,0.77749 0.31237,1.03005 0.19241,0.25198 0.44267,0.4237 0.74901,0.51259 0.3253,0.0777 0.66356,0.094 1.01228,0.0689 v 0.005 c 0.30632,-0.026 0.63078,-0.0777 0.97206,-0.1605 0.35551,-0.0863 0.7188,-0.20624 1.09253,-0.37451 0.37883,-0.18207 0.7516,-0.39865 1.1148,-0.65063 0.38227,-0.26664 0.75073,-0.59023 1.1059,-0.96766 z m 82.68735,5.15046 c -0.25369,-0.0179 -0.53415,-0.0179 -0.84738,0.009 l -6.75126,0.50825 c -0.31496,0.30461 -0.66359,0.71536 -1.04343,1.23518 -0.38055,0.51946 -0.71621,1.18115 -1.01229,1.98884 -0.28561,0.7792 -0.34515,1.4245 -0.17858,1.93093 0.18035,0.50481 0.48323,0.89596 0.90968,1.17271 0.43577,0.28993 0.93366,0.48236 1.49388,0.57988 0.57383,0.0975 1.11281,0.12685 1.61424,0.0888 0.68257,-0.0518 1.3943,-0.1907 2.14037,-0.41505 0.76022,-0.22523 1.48672,-0.53846 2.17618,-0.94083 0.68947,-0.40299 1.30179,-0.89398 1.83714,-1.46713 0.5445,-0.56003 0.95516,-1.21973 1.23525,-1.98436 0.1424,-0.38916 0.21228,-0.76022 0.20539,-1.11029 0.005,-0.35121 -0.0777,-0.65152 -0.25887,-0.90529 -0.1777,-0.25284 -0.45995,-0.44182 -0.84738,-0.56608 -0.19416,-0.0604 -0.41939,-0.10528 -0.67308,-0.12519 z"
       style="opacity:1;fill:#0072b9;fill-opacity:1;stroke:none;stroke-width:0.79375005;stroke-linecap:square;stroke-linejoin:miter;stroke-miterlimit:4;stroke-dasharray:none;stroke-dashoffset:17;stroke-opacity:1;paint-order:markers stroke fill"
       inkscape:export-xdpi="381.81445"
       inkscape:export-ydpi="381.81445" />
  </g>
</svg>
