<?xml version="1.0" encoding="UTF-8" standalone="no"?>
<svg
   xmlns:dc="http://purl.org/dc/elements/1.1/"
   xmlns:cc="http://creativecommons.org/ns#"
   xmlns:rdf="http://www.w3.org/1999/02/22-rdf-syntax-ns#"
   xmlns:svg="http://www.w3.org/2000/svg"
   xmlns="http://www.w3.org/2000/svg"
   xmlns:sodipodi="http://sodipodi.sourceforge.net/DTD/sodipodi-0.dtd"
   xmlns:inkscape="http://www.inkscape.org/namespaces/inkscape"
   width="2514.783"
   height="1000"
   viewBox="0 0 665.36964 264.58334"
   version="1.1"
   id="svg3411"
   inkscape:version="1.0.2-2 (e86c870879, 2021-01-15)"
   sodipodi:docname="logo wordmark light without border.svg"
   inkscape:export-filename="C:\Users\FinnH\Documents\Schule\Anderes\Racing\Logos\Finals\Wordmark\logo wordmark dark.png"
   inkscape:export-xdpi="805"
   inkscape:export-ydpi="805">
  <defs
     id="defs3405" />
  <sodipodi:namedview
     id="base"
     pagecolor="#ffffff"
     bordercolor="#666666"
     borderopacity="1.0"
     inkscape:pageopacity="0.0"
     inkscape:pageshadow="2"
     inkscape:zoom="0.58184042"
     inkscape:cx="679.77677"
     inkscape:cy="517.19475"
     inkscape:document-units="mm"
     inkscape:current-layer="layer1"
     showgrid="false"
     units="px"
     inkscape:snap-page="true"
     inkscape:snap-bbox="true"
     inkscape:bbox-nodes="true"
     inkscape:window-width="2560"
     inkscape:window-height="1417"
     inkscape:window-x="1072"
     inkscape:window-y="-8"
     inkscape:window-maximized="1"
     inkscape:snap-nodes="false"
     inkscape:snap-others="false"
     inkscape:document-rotation="0" />
  <metadata
     id="metadata3408">
    <rdf:RDF>
      <cc:Work
         rdf:about="">
        <dc:format>image/svg+xml</dc:format>
        <dc:type
           rdf:resource="http://purl.org/dc/dcmitype/StillImage" />
        <dc:title />
      </cc:Work>
    </rdf:RDF>
  </metadata>
  <g
     inkscape:label="Ebene 1"
     inkscape:groupmode="layer"
     id="layer1"
     transform="translate(0,-32.416658)">
    <g
       id="g861"
       style="fill:#e8f0f5;fill-opacity:1">
      <path
         inkscape:connector-curvature="0"
         id="path1375"
         style="font-style:normal;font-variant:normal;font-weight:bold;font-stretch:normal;font-size:15.9124px;line-height:1.25;font-family:sans-serif;-inkscape-font-specification:'sans-serif, Bold';font-variant-ligatures:normal;font-variant-caps:normal;font-variant-numeric:normal;font-feature-settings:normal;text-align:start;letter-spacing:0px;word-spacing:0px;writing-mode:lr-tb;text-anchor:start;fill:#e8f0f5;fill-opacity:1;stroke:none;stroke-width:0.264583"
         d="m 83.158331,144.24472 q 3.322924,-0.16854 5.176079,-1.72013 1.853155,-1.55158 2.120158,-4.40738 0.263566,-2.81914 -1.315741,-4.19659 -1.575885,-1.41408 -4.898809,-1.24553 l -7.777825,0.39436 -1.081687,11.56959 z m -1.76056,23.884 q 4.235809,-0.21502 6.521445,-2.11628 2.322152,-1.90331 2.661032,-5.52798 0.332063,-3.55148 -1.621556,-5.20142 -1.950178,-1.68661 -6.222503,-1.46989 l -8.252531,0.41877 -1.338417,14.31558 z M 96.308548,147.8046 q 4.404702,1.08839 6.555732,4.51386 2.15102,3.42552 1.66837,8.58787 -0.73938,7.90835 -6.433505,12.05972 -5.694127,4.15138 -16.575783,4.7033 l -23.333479,1.18361 5.110638,-54.66276 21.106031,-1.07058 q 11.356357,-0.57604 16.110258,2.60805 4.79042,3.18233 4.08185,10.76114 -0.3731,3.99077 -2.49899,6.90441 -2.12245,2.87707 -5.791122,4.41138 z" />
      <path
         inkscape:connector-curvature="0"
         id="path1377"
         style="font-style:normal;font-variant:normal;font-weight:bold;font-stretch:normal;font-size:15.9124px;line-height:1.25;font-family:sans-serif;-inkscape-font-specification:'sans-serif, Bold';font-variant-ligatures:normal;font-variant-caps:normal;font-variant-numeric:normal;font-feature-settings:normal;text-align:start;letter-spacing:0px;word-spacing:0px;writing-mode:lr-tb;text-anchor:start;fill:#e8f0f5;fill-opacity:1;stroke:none;stroke-width:0.264583"
         d="m 120.26489,121.30076 14.05852,-0.7131 -4.11453,44.00841 24.68456,-1.2521 -0.99612,10.65428 -38.74307,1.96525 z" />
      <path
         inkscape:connector-curvature="0"
         id="path1379"
         style="font-style:normal;font-variant:normal;font-weight:bold;font-stretch:normal;font-size:15.9124px;line-height:1.25;font-family:sans-serif;-inkscape-font-specification:'sans-serif, Bold';font-variant-ligatures:normal;font-variant-caps:normal;font-variant-numeric:normal;font-feature-settings:normal;text-align:start;letter-spacing:0px;word-spacing:0px;writing-mode:lr-tb;text-anchor:start;fill:#e8f0f5;fill-opacity:1;stroke:none;stroke-width:0.264583"
         d="m 165.25213,117.96209 14.05852,-0.7131 -3.06365,32.76841 q -0.63326,6.77328 1.28383,9.5912 1.95703,2.77941 6.95966,2.52566 5.03916,-0.25587 7.50052,-3.25918 2.50131,-3.042 3.13457,-9.81528 l 3.06365,-32.76841 14.05851,-0.71311 -3.06365,32.76838 q -1.08511,11.60621 -7.42167,17.57569 -6.33656,5.96944 -18.24065,6.57329 -11.86758,0.60196 -17.14299,-4.77847 -5.2754,-5.38047 -4.19029,-16.98668 z" />
      <path
         inkscape:connector-curvature="0"
         id="path1381"
         style="font-style:normal;font-variant:normal;font-weight:bold;font-stretch:normal;font-size:15.9124px;line-height:1.25;font-family:sans-serif;-inkscape-font-specification:'sans-serif, Bold';font-variant-ligatures:normal;font-variant-caps:normal;font-variant-numeric:normal;font-feature-settings:normal;text-align:start;letter-spacing:0px;word-spacing:0px;writing-mode:lr-tb;text-anchor:start;fill:#e8f0f5;fill-opacity:1;stroke:none;stroke-width:0.264583"
         d="m 226.01434,115.93672 37.93973,-1.92445 -0.99611,10.65428 -23.88122,1.21136 -0.95161,10.17833 22.4571,-1.13915 -0.99611,10.65429 -22.45711,1.13914 -1.17069,12.52155 24.68457,-1.2521 -0.99611,10.65429 -38.74308,1.96519 z" />
      <path
         inkscape:connector-curvature="0"
         id="path1383"
         style="font-style:normal;font-variant:normal;font-weight:bold;font-stretch:normal;font-size:15.9124px;line-height:1.25;font-family:sans-serif;-inkscape-font-specification:'sans-serif, Bold';font-variant-ligatures:normal;font-variant-caps:normal;font-variant-numeric:normal;font-feature-settings:normal;text-align:start;letter-spacing:0px;word-spacing:0px;writing-mode:lr-tb;text-anchor:start;fill:#e8f0f5;fill-opacity:1;stroke:none;stroke-width:0.264583"
         d="m 372.84134,132.61171 q 4.41842,-0.22395 6.47127,-1.96802 2.08933,-1.74576 2.44191,-5.51686 0.34929,-3.73447 -1.43553,-5.24728 -1.74821,-1.51465 -6.16662,-1.29053 l -5.9155,0.30005 -1.31102,14.02268 z m -6.82605,10.03908 -1.93402,20.68613 -14.05854,0.7131 5.11062,-54.66276 21.4712,-1.0891 q 10.77213,-0.5464 15.4359,2.82448 4.70025,3.36908 3.96772,11.20419 -0.50662,5.41872 -3.46092,9.03024 -2.91782,3.60969 -8.33008,5.52399 2.82308,0.51272 4.868,2.74111 2.08482,2.18989 3.98025,6.79441 l 6.18042,15.13665 -14.97144,0.75938 -5.37587,-13.24619 q -1.62501,-3.99875 -3.56603,-5.39423 -1.90454,-1.39741 -5.337,-1.22333 z" />
      <path
         inkscape:connector-curvature="0"
         id="path1385"
         style="font-style:normal;font-variant:normal;font-weight:bold;font-stretch:normal;font-size:15.9124px;line-height:1.25;font-family:sans-serif;-inkscape-font-specification:'sans-serif, Bold';font-variant-ligatures:normal;font-variant-caps:normal;font-variant-numeric:normal;font-feature-settings:normal;text-align:start;letter-spacing:0px;word-spacing:0px;writing-mode:lr-tb;text-anchor:start;fill:#e8f0f5;fill-opacity:1;stroke:none;stroke-width:0.264583"
         d="m 430.39002,129.69262 q 4.41833,-0.22394 6.47122,-1.96801 2.08933,-1.74576 2.44191,-5.51683 0.34929,-3.73448 -1.43553,-5.24729 -1.7482,-1.51465 -6.16657,-1.29053 l -5.91555,0.30005 -1.31107,14.02266 z m -6.8261,10.03903 -1.93402,20.68614 -14.05853,0.71314 5.11062,-54.66272 21.4712,-1.08911 q 10.77208,-0.5464 15.43589,2.82448 4.70025,3.36909 3.96772,11.2042 -0.50662,5.41863 -3.46091,9.0302 -2.91782,3.60969 -8.33008,5.524 2.82312,0.51272 4.86799,2.7411 2.08482,2.18989 3.9802,6.79441 l 6.18043,15.13665 -14.97139,0.75939 -5.37588,-13.2462 q -1.62501,-3.99875 -3.56603,-5.39428 -1.90458,-1.3974 -5.337,-1.22327 z" />
      <path
         inkscape:connector-curvature="0"
         id="path1387"
         style="font-style:normal;font-variant:normal;font-weight:bold;font-stretch:normal;font-size:15.9124px;line-height:1.25;font-family:sans-serif;-inkscape-font-specification:'sans-serif, Bold';font-variant-ligatures:normal;font-variant-caps:normal;font-variant-numeric:normal;font-feature-settings:normal;text-align:start;letter-spacing:0px;word-spacing:0px;writing-mode:lr-tb;text-anchor:start;fill:#e8f0f5;fill-opacity:1;stroke:none;stroke-width:0.264583"
         d="m 494.27161,110.50969 q -6.42671,0.32601 -10.41372,5.26533 -3.98701,4.9393 -4.79485,13.5799 -0.8044,8.60398 2.29257,13.18399 3.09702,4.57997 9.52378,4.25396 6.46328,-0.3277 10.45029,-5.26715 3.98697,-4.93935 4.79142,-13.54327 0.80784,-8.64063 -2.28918,-13.22059 -3.09697,-4.58001 -9.56031,-4.25217 z m 0.95507,-10.21492 q 13.14563,-0.666804 19.88966,6.49754 6.74408,7.16435 5.50151,20.45479 -1.23919,13.2538 -9.39354,21.17383 -8.15431,7.92008 -21.29999,8.58689 -13.1091,0.66492 -19.88961,-6.49756 -6.74409,-7.16436 -5.50494,-20.41816 1.24262,-13.29044 9.39697,-21.21048 8.19083,-7.9219 21.29994,-8.58685 z" />
      <path
         inkscape:connector-curvature="0"
         id="path1389"
         style="font-style:normal;font-variant:normal;font-weight:bold;font-stretch:normal;font-size:15.9124px;line-height:1.25;font-family:sans-serif;-inkscape-font-specification:'sans-serif, Bold';font-variant-ligatures:normal;font-variant-caps:normal;font-variant-numeric:normal;font-feature-settings:normal;text-align:start;letter-spacing:0px;word-spacing:0px;writing-mode:lr-tb;text-anchor:start;fill:#e8f0f5;fill-opacity:1;stroke:none;stroke-width:0.264583"
         d="m 529.13032,100.56146 13.47427,-0.683473 5.707,39.246863 13.06201,-40.198902 13.54732,-0.687174 5.63395,39.250596 13.13507,-40.202636 13.36473,-0.67791 -17.96418,55.314716 -16.21289,0.82238 -6.01056,-41.05345 -13.6714,42.0518 -16.21293,0.82239 z" />
      <path
         inkscape:export-ydpi="96"
         inkscape:export-xdpi="96"
         style="color:#000000;font-style:normal;font-variant:normal;font-weight:bold;font-stretch:normal;font-size:10.5055px;line-height:1.25;font-family:Verdana;-inkscape-font-specification:'Verdana, Bold';font-variant-ligatures:normal;font-variant-position:normal;font-variant-caps:normal;font-variant-numeric:normal;font-variant-alternates:normal;font-feature-settings:normal;text-indent:0;text-align:start;text-decoration:none;text-decoration-line:none;text-decoration-style:solid;text-decoration-color:#000000;letter-spacing:0px;word-spacing:0px;text-transform:none;writing-mode:lr-tb;direction:ltr;text-orientation:mixed;dominant-baseline:auto;baseline-shift:baseline;text-anchor:start;white-space:normal;shape-padding:0;clip-rule:nonzero;display:inline;overflow:visible;visibility:visible;isolation:auto;mix-blend-mode:normal;color-interpolation:sRGB;color-interpolation-filters:linearRGB;solid-color:#000000;solid-opacity:1;vector-effect:none;fill:#e8f0f5;fill-opacity:1;fill-rule:nonzero;stroke:none;stroke-width:2.646;stroke-linecap:round;stroke-linejoin:round;stroke-miterlimit:4;stroke-dasharray:none;stroke-dashoffset:0;stroke-opacity:1;color-rendering:auto;image-rendering:auto;shape-rendering:auto;text-rendering:auto;enable-background:accumulate"
         d="m 326.46262,104.82679 c -1.5544,0.0173 -2.97502,0.88224 -3.69828,2.25781 l -28.12333,53.48249 c -1.52074,2.9014 0.69909,6.355 3.9667,6.18092 l 1.48449,-0.0777 8.67564,-0.46778 c -0.45743,4.05128 -1.57339,10.22857 -6.11835,18.28072 -6.70696,11.88292 -19.83262,24.65921 -48.07506,28.11031 -5.41503,0.73016 -4.57637,8.80001 0.87343,8.40126 0.0863,-0.005 0.0949,-0.0259 0.15536,-0.0345 v 0.0173 c 0.20713,-0.0259 0.3366,-0.0984 0.54373,-0.12514 29.62682,-2.74415 47.14122,-17.31055 56.68253,-31.2475 7.68914,-11.23311 9.90207,-20.27029 10.72113,-24.21222 l 12.58623,-0.6801 c 2.53917,-0.14068 4.37925,-2.47556 3.92355,-4.9771 l -9.39976,-51.44305 c -0.37113,-2.02357 -2.14043,-3.48751 -4.19714,-3.46775 z"
         id="path1393"
         inkscape:connector-curvature="0"
         sodipodi:nodetypes="ccccccccccccccccccc" />
      <path
         d="m 103.88306,229.64029 3.24141,-1.191 q 0.42383,-0.15818 0.78574,-0.48003 0.38281,-0.32342 0.55738,-0.7995 l 8.38771,-22.87362 q 0.17457,-0.47608 0.014,-0.75857 -0.16062,-0.28251 -0.47626,-0.36395 l -2.52722,-0.75662 0.56341,-1.53644 13.54376,-1.01988 q 2.2782,-0.17155 3.87305,0.024 1.62367,0.17233 2.65843,0.62048 1.05567,0.44657 1.601,1.12094 0.55326,0.65274 0.72451,1.46052 0.17124,0.80776 0.0261,1.70248 -0.14517,0.89472 -0.47846,1.8036 -0.67451,1.83942 -1.77263,3.22675 -1.07722,1.38576 -2.33305,2.42724 -1.24789,1.01984 -2.56487,1.72924 -1.28813,0.6862 -2.3686,1.08319 l 3.08965,10.14133 q 0.0799,0.22546 0.2146,0.46783 0.13468,0.24237 0.3191,0.45995 0.18443,0.21757 0.39266,0.37024 0.22913,0.15108 0.45613,0.19711 l 2.5669,0.64842 -0.56341,1.53644 -7.06449,0.53198 q -0.98235,0.074 -1.55383,-0.0303 -0.57147,-0.10427 -0.91226,-0.39425 -0.33285,-0.31161 -0.51862,-0.80265 -0.17783,-0.51267 -0.35991,-1.23545 l -2.52342,-9.46852 -2.51503,-0.56815 -3.5868,9.78135 q -0.18251,0.49771 -0.0637,0.78336 0.14764,0.26245 0.49715,0.36238 l 2.79895,0.73615 -0.56341,1.53644 -14.129,1.06395 z m 18.16125,-15.10839 q 1.27496,-0.096 2.39801,-0.66455 1.13099,-0.59019 2.0466,-1.47981 0.93649,-0.89117 1.62588,-1.99522 0.71028,-1.10561 1.12292,-2.23089 1.11095,-3.02962 0.21846,-4.30914 -0.87159,-1.28109 -3.4633,-1.08593 l -2.5081,0.18887 -4.23749,11.55582 q 0.17224,0.0291 0.53257,0.0441 0.36827,-0.007 0.79133,0.004 0.42307,0.0102 0.81224,0.002 0.41007,-0.01 0.66088,-0.0287 z"
         style="font-style:normal;font-variant:normal;font-weight:bold;font-stretch:normal;font-size:47.1861px;line-height:1.25;font-family:'Sitka Heading';-inkscape-font-specification:'Sitka Heading, Bold';font-variant-ligatures:normal;font-variant-caps:normal;font-variant-numeric:normal;font-feature-settings:normal;text-align:start;letter-spacing:0px;word-spacing:0px;writing-mode:lr-tb;text-anchor:start;fill:#e8f0f5;fill-opacity:1;stroke:none;stroke-width:0.264584"
         id="path864" />
      <path
         d="m 139.36122,228.88357 q -1.35857,0.1023 -2.2629,-0.31358 -0.89639,-0.43752 -1.36024,-1.22325 -0.44295,-0.78731 -0.45627,-1.85948 -0.0133,-1.07216 0.41521,-2.24073 0.50786,-1.38497 1.37238,-2.52324 0.87246,-1.15991 1.95528,-2.06211 1.08281,-0.9022 2.30823,-1.58367 1.24634,-0.68304 2.46808,-1.13277 1.25059,-0.47293 2.42181,-0.72947 1.20007,-0.27975 2.18241,-0.35372 0.20901,-0.0157 0.59818,-0.024 0.41007,-0.01 0.83314,3.8e-4 0.42302,0.0103 0.80428,0.0236 0.41007,-0.01 0.61118,-0.004 l 1.02872,-2.74987 q 0.38883,-1.06037 0.51233,-1.78511 0.15233,-0.74797 -0.0234,-1.15558 -0.1548,-0.4092 -0.6268,-0.56304 -0.472,-0.15384 -1.26624,-0.094 -0.85694,0.0645 -1.99798,0.5713 -1.13312,0.48514 -2.31675,1.16346 -1.1757,0.65668 -2.27069,1.37042 -1.08706,0.69208 -1.82305,1.14731 l -0.94055,0.0708 1.11586,-4.65026 q 0.963,-0.4092 2.02256,-0.80462 1.06752,-0.41707 2.22868,-0.75702 1.19001,-0.36317 2.46574,-0.62757 1.27573,-0.2644 2.65519,-0.36828 1.56756,-0.11804 3.00816,0.11015 1.44853,0.20657 2.38015,0.93603 0.93953,0.70783 1.205,2.03456 0.27341,1.3051 -0.50929,3.38412 l -4.11479,10.99949 q -0.12697,0.34623 -0.12562,0.61968 0.0223,0.27188 0.1519,0.47255 0.15849,0.17744 0.4244,0.28367 0.27383,0.0846 0.69184,0.0531 0.29262,-0.022 0.84689,-0.14796 0.5622,-0.14754 1.06169,-0.29036 l 0.52252,-0.0393 -0.64277,1.75285 q -0.42171,0.26323 -1.14685,0.63347 -0.69633,0.34702 -1.53101,0.68343 -0.8347,0.33641 -1.70035,0.59098 -0.86565,0.25457 -1.55537,0.3065 -1.04505,0.0787 -1.83057,-0.0515 -0.76461,-0.13181 -1.21997,-0.49733 -0.42651,-0.38873 -0.49906,-1.07767 -0.0516,-0.69051 0.32132,-1.7076 l -0.1045,0.008 q -1.24655,1.29329 -2.436,2.09831 -1.16854,0.80344 -2.23101,1.26221 -1.05454,0.43714 -1.99295,0.61301 -0.91752,0.1743 -1.62815,0.22781 z m 4.62463,-3.79923 q 0.45983,-0.0346 0.97229,-0.1574 0.53336,-0.12435 1.09344,-0.37693 0.56801,-0.27424 1.11299,-0.65196 0.57382,-0.40093 1.10662,-0.96712 l 2.25077,-6.08245 q -1.50487,0.11332 -2.8253,0.44422 -1.29954,0.32933 -2.37577,0.93644 -1.04738,0.58389 -1.83758,1.46405 -0.7693,0.87859 -1.21368,2.09044 -0.3809,1.03873 -0.35519,1.68911 0.0466,0.64881 0.31387,1.0285 0.28814,0.37811 0.74718,0.51188 0.48787,0.11056 1.0104,0.0712 z"
         style="font-style:normal;font-variant:normal;font-weight:bold;font-stretch:normal;font-size:47.1861px;line-height:1.25;font-family:'Sitka Heading';-inkscape-font-specification:'Sitka Heading, Bold';font-variant-ligatures:normal;font-variant-caps:normal;font-variant-numeric:normal;font-feature-settings:normal;text-align:start;letter-spacing:0px;word-spacing:0px;writing-mode:lr-tb;text-anchor:start;fill:#e8f0f5;fill-opacity:1;stroke:none;stroke-width:0.264584"
         id="path866" />
      <path
         d="m 166.92654,226.87097 q -2.36181,0.17785 -3.8916,-0.52762 -1.50096,-0.72868 -2.2154,-2.10578 -0.68562,-1.4003 -0.61142,-3.32076 0.10303,-1.94368 0.93625,-4.21589 0.60309,-1.64465 1.52181,-3.20785 0.93963,-1.56479 2.13432,-2.93835 1.22352,-1.39676 2.65237,-2.57754 1.42885,-1.18076 3.03128,-2.05897 1.60242,-0.87819 3.34959,-1.4306 1.74718,-0.55243 3.56555,-0.68936 1.17045,-0.0881 2.06048,0.0342 0.89795,0.10072 1.55516,0.30375 0.67811,0.20145 1.13134,0.46191 0.48207,0.23725 0.78685,0.40369 l -2.35481,4.86981 -0.98234,0.074 q -0.55908,-0.52605 -1.24355,-1.04265 -0.67655,-0.53825 -1.41368,-0.96672 -0.73712,-0.42847 -1.54566,-0.66218 -0.77971,-0.25693 -1.57394,-0.19712 -0.50162,0.0378 -1.0019,0.349 -0.50028,0.31122 -1.21906,0.99663 -0.37778,0.36513 -0.85078,0.98993 -0.46507,0.60318 -0.97562,1.44124 -0.48965,0.83649 -0.99596,1.88465 -0.49837,1.02654 -0.95068,2.26002 -0.73799,2.01254 -0.95402,3.54386 -0.1872,1.50813 0.1973,2.51026 0.4054,1.00055 1.39043,1.47349 1.00592,0.47136 2.678,0.34545 0.81513,-0.0614 1.63898,-0.31281 0.82385,-0.25141 1.57494,-0.58153 0.77992,-0.35332 1.45031,-0.74049 0.69129,-0.38874 1.2622,-0.72632 l 0.66883,-0.0504 -0.76973,2.0991 q -0.96166,0.68264 -2.1273,1.42274 -1.1577,0.71845 -2.43499,1.31966 -1.27729,0.60121 -2.67127,1.02181 -1.38103,0.44068 -2.80228,0.54771 z"
         style="font-style:normal;font-variant:normal;font-weight:bold;font-stretch:normal;font-size:47.1861px;line-height:1.25;font-family:'Sitka Heading';-inkscape-font-specification:'Sitka Heading, Bold';font-variant-ligatures:normal;font-variant-caps:normal;font-variant-numeric:normal;font-feature-settings:normal;text-align:start;letter-spacing:0px;word-spacing:0px;writing-mode:lr-tb;text-anchor:start;fill:#e8f0f5;fill-opacity:1;stroke:none;stroke-width:0.264584"
         id="path868" />
      <path
         d="m 192.97596,199.17432 q -0.73153,0.0551 -1.3181,-0.1743 -0.56567,-0.23096 -0.91361,-0.6677 -0.32704,-0.4383 -0.4025,-1.0639 -0.0675,-0.64724 0.21023,-1.40463 0.27774,-0.75741 0.80048,-1.40701 0.55157,-0.67282 1.21983,-1.16503 0.6762,-0.51385 1.44025,-0.8239 0.78495,-0.31162 1.55829,-0.36985 0.81514,-0.0614 1.40964,0.14636 0.6154,0.20617 0.97128,0.62126 0.36381,0.39346 0.4054,1.00056 0.0704,0.58389 -0.20731,1.3413 -0.28568,0.77904 -0.84519,1.4735 -0.53861,0.69287 -1.24364,1.22994 -0.70504,0.53707 -1.51883,0.8719 -0.79289,0.33326 -1.56622,0.3915 z m -15.11978,24.9377 2.84643,-1.05604 q 0.46562,-0.16132 0.8196,-0.46153 0.35397,-0.30021 0.52855,-0.77629 l 4.96755,-13.54672 q 0.19045,-0.51936 0.0378,-0.8235 -0.14475,-0.32579 -0.67152,-0.49655 l -1.89014,-0.72041 0.49199,-1.34169 9.82674,-2.02357 -6.78475,18.50231 q -0.17458,0.47608 -0.0269,0.73852 0.16855,0.26086 0.49715,0.36237 l 2.0862,0.6846 -0.54755,1.49317 -12.72863,0.9585 z"
         style="font-style:normal;font-variant:normal;font-weight:bold;font-stretch:normal;font-size:47.1861px;line-height:1.25;font-family:'Sitka Heading';-inkscape-font-specification:'Sitka Heading, Bold';font-variant-ligatures:normal;font-variant-caps:normal;font-variant-numeric:normal;font-feature-settings:normal;text-align:start;letter-spacing:0px;word-spacing:0px;writing-mode:lr-tb;text-anchor:start;fill:#e8f0f5;fill-opacity:1;stroke:none;stroke-width:0.264584"
         id="path870" />
      <path
         d="m 192.38223,223.01817 2.53794,-0.99073 q 0.43176,-0.17981 0.78572,-0.48001 0.37488,-0.30178 0.54153,-0.75623 l 5.03103,-13.71984 q 0.19839,-0.541 0.0248,-0.84357 -0.14475,-0.32578 -0.65061,-0.49812 l -1.69197,-0.65116 0.49199,-1.34169 9.46718,-2.20692 -1.31727,3.59226 0.1045,-0.008 q 1.33015,-1.29958 2.47779,-2.10146 1.15558,-0.8235 2.15535,-1.27755 1.02067,-0.45563 1.90432,-0.64842 0.90455,-0.19438 1.74058,-0.25733 1.42126,-0.10702 2.49571,0.23292 1.09534,0.33836 1.67375,1.19964 0.58635,0.83964 0.5772,2.25018 -0.009,1.41053 -0.74713,3.42307 l -4.14228,11.29615 q -0.19045,0.51936 -0.0428,0.7818 0.16855,0.26086 0.48128,0.40564 l 1.66314,0.67438 -0.54754,1.49317 -11.68358,0.8798 0.54754,-1.49317 2.24532,-0.96869 q 0.41086,-0.17824 0.76483,-0.47844 0.3828,-0.32342 0.57325,-0.84279 l 3.32493,-9.06721 q 0.53961,-1.47153 0.8189,-2.56573 0.28724,-1.11585 0.15993,-1.82171 -0.0985,-0.72908 -0.66627,-1.06509 -0.56779,-0.33601 -1.73823,-0.24787 -0.50163,0.0378 -1.06885,0.1436 -0.55927,0.0841 -1.15323,0.31831 -0.586,0.21247 -1.20163,0.61655 -0.60769,0.38244 -1.2061,1.01669 l -4.88819,13.33032 q -0.17458,0.47608 -0.019,0.71688 0.18442,0.21758 0.48922,0.38401 l 1.41233,0.69326 -0.54754,1.49317 -11.72538,0.88295 z"
         style="font-style:normal;font-variant:normal;font-weight:bold;font-stretch:normal;font-size:47.1861px;line-height:1.25;font-family:'Sitka Heading';-inkscape-font-specification:'Sitka Heading, Bold';font-variant-ligatures:normal;font-variant-caps:normal;font-variant-numeric:normal;font-feature-settings:normal;text-align:start;letter-spacing:0px;word-spacing:0px;writing-mode:lr-tb;text-anchor:start;fill:#e8f0f5;fill-opacity:1;stroke:none;stroke-width:0.264584"
         id="path872" />
      <path
         d="m 225.43825,232.08135 q -2.2364,0.16841 -3.98258,-0.0578 -1.75411,-0.20458 -2.8717,-0.81484 -1.09668,-0.61182 -1.48912,-1.59231 -0.37947,-0.96042 0.12046,-2.32375 0.3809,-1.03873 0.98009,-1.84139 0.59125,-0.781 1.44549,-1.39243 0.84632,-0.5898 1.9924,-1.05487 1.16697,-0.46664 2.65753,-0.87348 l 0.0397,-0.1082 q -0.60534,-0.12276 -1.20991,-0.41391 -0.58365,-0.29274 -1.0123,-0.78653 -0.40774,-0.49536 -0.56389,-1.178 -0.12732,-0.70586 0.20597,-1.61474 0.34122,-0.93053 1.01317,-1.65449 0.67195,-0.72396 1.50239,-1.27048 0.83838,-0.56815 1.77255,-0.95413 0.9421,-0.40763 1.80775,-0.66219 l 0.0397,-0.10821 q -0.63552,-0.37299 -1.20253,-0.8774 -0.56702,-0.50441 -0.89541,-1.21617 -0.29954,-0.73498 -0.31867,-1.68045 -0.0112,-0.96711 0.457,-2.24389 0.56341,-1.53644 1.77398,-2.95328 1.21055,-1.41684 2.83757,-2.52837 1.65585,-1.13473 3.62578,-1.85122 1.99876,-0.7397 4.13065,-0.90023 1.21225,-0.0913 2.37398,0.0106 1.19057,0.0787 2.2031,0.25495 l 7.81692,-0.58863 -1.52684,3.16615 -5.04908,-0.41942 -0.0317,0.0866 q 0.43948,0.4088 0.62234,0.96318 0.18286,0.55438 0.19058,1.14299 0.0286,0.58704 -0.097,1.20673 -0.11768,0.59805 -0.30813,1.11742 -0.58722,1.60137 -1.70624,2.99027 -1.09812,1.38734 -2.6754,2.47406 -1.54844,1.06352 -3.51044,1.75837 -1.93315,0.67163 -4.16954,0.84004 -1.10775,0.0834 -1.97978,0.0228 -0.85112,-0.0622 -1.39376,-0.18964 -0.22779,0.12237 -0.47938,0.30965 -0.23069,0.18572 -0.46428,0.43477 -0.21269,0.24749 -0.4074,0.55674 -0.19471,0.30927 -0.32168,0.65551 -0.17458,0.47608 -0.1473,0.78967 0.0482,0.312 0.21964,0.50952 0.1794,0.17587 0.47413,0.25889 0.29474,0.083 0.65508,0.098 l 6.66738,-0.50207 q 2.27819,-0.17155 3.5688,0.29942 1.2906,0.47096 1.85605,1.31217 0.58636,0.83963 0.55787,1.91495 -0.0285,1.07532 -0.40145,2.0924 -0.69038,1.88269 -2.20227,3.51161 -1.51982,1.65054 -3.57569,2.87853 -2.05588,1.22799 -4.53536,2.00388 -2.46652,0.79598 -5.07913,0.99271 z m 7.90455,-20.05961 q 0.85694,-0.0645 1.59293,-0.51976 0.7569,-0.4568 1.37407,-1.19768 0.64603,-0.7641 1.17827,-1.77213 0.54017,-1.02968 0.97661,-2.21989 0.43645,-1.1902 0.57659,-2.12663 0.16899,-0.95965 0.0179,-1.60059 -0.15112,-0.64094 -0.60145,-0.96474 -0.45031,-0.32382 -1.24455,-0.26401 -0.79423,0.0598 -1.51436,0.47176 -0.72012,0.41194 -1.35027,1.13276 -0.63015,0.72082 -1.17535,1.70879 -0.53726,0.96633 -0.96578,2.1349 -0.46025,1.25512 -0.63717,2.2364 -0.17692,0.98129 -0.0626,1.66708 0.13525,0.68421 0.57763,1.02967 0.4424,0.34545 1.25753,0.28407 z m -5.90514,17.48915 q 1.02414,-0.0771 2.14351,-0.41391 1.14027,-0.33838 2.17468,-0.94234 1.03442,-0.60396 1.83759,-1.46405 0.81613,-0.84004 1.2367,-1.98697 0.21426,-0.58428 0.20364,-1.10954 0.0103,-0.52684 -0.25697,-0.90653 -0.26725,-0.37968 -0.84878,-0.56736 -0.58154,-0.18768 -1.52209,-0.11685 l -6.75097,0.50836 q -0.47222,0.45641 -1.04257,1.23585 -0.57035,0.77945 -1.01474,1.99129 -0.4285,1.16856 -0.17869,1.92833 0.27071,0.75819 0.91127,1.17289 0.65352,0.43476 1.4938,0.58192 0.86119,0.14557 1.61362,0.0889 z"
         style="font-style:normal;font-variant:normal;font-weight:bold;font-stretch:normal;font-size:47.1861px;line-height:1.25;font-family:'Sitka Heading';-inkscape-font-specification:'Sitka Heading, Bold';font-variant-ligatures:normal;font-variant-caps:normal;font-variant-numeric:normal;font-feature-settings:normal;text-align:start;letter-spacing:0px;word-spacing:0px;writing-mode:lr-tb;text-anchor:start;fill:#e8f0f5;fill-opacity:1;stroke:none;stroke-width:0.264584"
         id="path874" />
    </g>
  </g>
</svg>
