<?xml version="1.0" encoding="UTF-8" standalone="no"?>
<!-- Created with Inkscape (http://www.inkscape.org/) -->

<svg
   xmlns:dc="http://purl.org/dc/elements/1.1/"
   xmlns:cc="http://creativecommons.org/ns#"
   xmlns:rdf="http://www.w3.org/1999/02/22-rdf-syntax-ns#"
   xmlns:svg="http://www.w3.org/2000/svg"
   xmlns="http://www.w3.org/2000/svg"
   xmlns:sodipodi="http://sodipodi.sourceforge.net/DTD/sodipodi-0.dtd"
   xmlns:inkscape="http://www.inkscape.org/namespaces/inkscape"
   width="2514.783"
   height="1000"
   viewBox="0 0 665.36964 264.58334"
   version="1.1"
   id="svg3411"
   inkscape:version="0.92.3 (2405546, 2018-03-11)"
   sodipodi:docname="logo wordmark light.svg"
   inkscape:export-filename="C:\Users\FinnH\Documents\Schule\Anderes\Racing\Logos\Finals\Wordmark\logo wordmark light.png"
   inkscape:export-xdpi="805"
   inkscape:export-ydpi="805">
  <defs
     id="defs3405" />
  <sodipodi:namedview
     id="base"
     pagecolor="#ffffff"
     bordercolor="#666666"
     borderopacity="1.0"
     inkscape:pageopacity="0.0"
     inkscape:pageshadow="2"
     inkscape:zoom="0.11114398"
     inkscape:cx="-1021.2181"
     inkscape:cy="1046.4441"
     inkscape:document-units="mm"
     inkscape:current-layer="layer1"
     showgrid="false"
     units="px"
     inkscape:snap-page="true"
     inkscape:snap-bbox="true"
     inkscape:bbox-nodes="true"
     inkscape:window-width="1920"
     inkscape:window-height="1017"
     inkscape:window-x="1272"
     inkscape:window-y="-8"
     inkscape:window-maximized="1" />
  <metadata
     id="metadata3408">
    <rdf:RDF>
      <cc:Work
         rdf:about="">
        <dc:format>image/svg+xml</dc:format>
        <dc:type
           rdf:resource="http://purl.org/dc/dcmitype/StillImage" />
        <dc:title></dc:title>
      </cc:Work>
    </rdf:RDF>
  </metadata>
  <g
     inkscape:label="Ebene 1"
     inkscape:groupmode="layer"
     id="layer1"
     transform="translate(0,-32.416658)">
    <rect
       style="opacity:1;fill:#e8f0f5;fill-opacity:1;stroke:none;stroke-width:0.79375011;stroke-linecap:square;stroke-linejoin:miter;stroke-miterlimit:4;stroke-dasharray:none;stroke-dashoffset:17;stroke-opacity:1;paint-order:markers stroke fill"
       id="rect1401"
       width="665.36957"
       height="264.58334"
       x="-0.12496745"
       y="32.41666"
       inkscape:export-xdpi="805.36566"
       inkscape:export-ydpi="805.36566" />
    <g
       style="fill:#1c6abd;fill-opacity:1;stroke-width:0.11586469"
       id="g1228"
       transform="matrix(8.6307608,0,0,8.6307608,-8380.2639,-5814.7644)">
      <g
         style="fill:#1c6abd;fill-opacity:1;stroke-width:0.21300167"
         id="g1391"
         transform="matrix(0.54396142,0,0,0.54396142,952.54617,633.73748)">
        <path
           inkscape:connector-curvature="0"
           id="path1375"
           style="font-style:normal;font-variant:normal;font-weight:bold;font-stretch:normal;font-size:15.9124012px;line-height:1.25;font-family:sans-serif;-inkscape-font-specification:'sans-serif, Bold';font-variant-ligatures:normal;font-variant-caps:normal;font-variant-numeric:normal;font-feature-settings:normal;text-align:start;letter-spacing:0px;word-spacing:0px;writing-mode:lr-tb;text-anchor:start;fill:#1c6abd;fill-opacity:1;stroke:none;stroke-width:0.0563567"
           d="m 51.5808,104.23183 q 0.707788,-0.0359 1.102513,-0.36639 0.394725,-0.33049 0.451597,-0.93878 0.05614,-0.60048 -0.280255,-0.89388 -0.335666,-0.3012 -1.043454,-0.2653 l -1.656689,0.084 -0.230401,2.46434 z m -0.375002,5.08733 q 0.902234,-0.0458 1.389078,-0.45077 0.494622,-0.40541 0.566804,-1.17747 0.07073,-0.75647 -0.345394,-1.10791 -0.415391,-0.35925 -1.325403,-0.31309 l -1.757802,0.0892 -0.285085,3.04924 z m 3.176019,-4.32907 q 0.938209,0.23183 1.396382,0.96146 0.45817,0.72964 0.355365,1.82923 -0.15749,1.68449 -1.370347,2.56874 -1.212858,0.88425 -3.530668,1.00181 l -4.970068,0.25211 1.088574,-11.643254 4.495618,-0.228035 q 2.418922,-0.122698 3.431511,0.555519 1.020366,0.67784 0.869439,2.29214 -0.07947,0.85004 -0.532288,1.47065 -0.452085,0.61282 -1.233518,0.93963 z" />
        <path
           inkscape:connector-curvature="0"
           id="path1377"
           style="font-style:normal;font-variant:normal;font-weight:bold;font-stretch:normal;font-size:15.9124012px;line-height:1.25;font-family:sans-serif;-inkscape-font-specification:'sans-serif, Bold';font-variant-ligatures:normal;font-variant-caps:normal;font-variant-numeric:normal;font-feature-settings:normal;text-align:start;letter-spacing:0px;word-spacing:0px;writing-mode:lr-tb;text-anchor:start;fill:#1c6abd;fill-opacity:1;stroke:none;stroke-width:0.0563567"
           d="m 59.484556,99.344731 2.994486,-0.151893 -0.876401,9.373862 5.25785,-0.2667 -0.212174,2.26938 -8.252335,0.4186 z" />
        <path
           inkscape:connector-curvature="0"
           id="path1379"
           style="font-style:normal;font-variant:normal;font-weight:bold;font-stretch:normal;font-size:15.9124012px;line-height:1.25;font-family:sans-serif;-inkscape-font-specification:'sans-serif, Bold';font-variant-ligatures:normal;font-variant-caps:normal;font-variant-numeric:normal;font-feature-settings:normal;text-align:start;letter-spacing:0px;word-spacing:0px;writing-mode:lr-tb;text-anchor:start;fill:#1c6abd;fill-opacity:1;stroke:none;stroke-width:0.0563567"
           d="m 69.06691,98.633589 2.994486,-0.151893 -0.652562,6.979724 q -0.134886,1.44272 0.273457,2.04294 0.416851,0.59202 1.48242,0.53797 1.073349,-0.0545 1.597622,-0.69421 0.532782,-0.64795 0.667668,-2.09067 l 0.652562,-6.979723 2.994486,-0.151893 -0.652562,6.979716 q -0.231131,2.47214 -1.580829,3.74365 -1.349696,1.2715 -3.885287,1.40012 -2.527812,0.12822 -3.651484,-1.01782 -1.123669,-1.14605 -0.892539,-3.61819 z" />
        <path
           inkscape:connector-curvature="0"
           id="path1381"
           style="font-style:normal;font-variant:normal;font-weight:bold;font-stretch:normal;font-size:15.9124012px;line-height:1.25;font-family:sans-serif;-inkscape-font-specification:'sans-serif, Bold';font-variant-ligatures:normal;font-variant-caps:normal;font-variant-numeric:normal;font-feature-settings:normal;text-align:start;letter-spacing:0px;word-spacing:0px;writing-mode:lr-tb;text-anchor:start;fill:#1c6abd;fill-opacity:1;stroke:none;stroke-width:0.0563567"
           d="m 82.009355,98.202182 8.081224,-0.409912 -0.212174,2.26938 -5.086738,0.25802 -0.202694,2.168 4.783399,-0.24264 -0.212173,2.26938 -4.7834,0.24264 -0.249359,2.66711 5.257851,-0.2667 -0.212173,2.26938 -8.252337,0.41859 z" />
        <path
           inkscape:connector-curvature="0"
           id="path1383"
           style="font-style:normal;font-variant:normal;font-weight:bold;font-stretch:normal;font-size:15.9124012px;line-height:1.25;font-family:sans-serif;-inkscape-font-specification:'sans-serif, Bold';font-variant-ligatures:normal;font-variant-caps:normal;font-variant-numeric:normal;font-feature-settings:normal;text-align:start;letter-spacing:0px;word-spacing:0px;writing-mode:lr-tb;text-anchor:start;fill:#1c6abd;fill-opacity:1;stroke:none;stroke-width:0.0563567"
           d="m 113.28374,101.75398 q 0.94113,-0.0477 1.37839,-0.41919 0.44503,-0.37185 0.52013,-1.1751 0.0744,-0.795449 -0.30577,-1.117679 -0.37237,-0.322623 -1.3135,-0.274885 l -1.26001,0.06391 -0.27925,2.986854 z m -1.45396,2.13834 -0.41195,4.40618 -2.99449,0.15189 1.08857,-11.643253 4.5734,-0.231981 q 2.29448,-0.116385 3.28787,0.601619 1.00116,0.71762 0.84513,2.386511 -0.10791,1.154194 -0.73718,1.923454 -0.6215,0.76887 -1.77432,1.17662 0.60132,0.10921 1.03689,0.58386 0.44407,0.46645 0.8478,1.44722 l 1.31644,3.22413 -3.18894,0.16175 -1.14507,-2.82146 q -0.34613,-0.85174 -0.75957,-1.14898 -0.40567,-0.29765 -1.13679,-0.26057 z" />
        <path
           inkscape:connector-curvature="0"
           id="path1385"
           style="font-style:normal;font-variant:normal;font-weight:bold;font-stretch:normal;font-size:15.9124012px;line-height:1.25;font-family:sans-serif;-inkscape-font-specification:'sans-serif, Bold';font-variant-ligatures:normal;font-variant-caps:normal;font-variant-numeric:normal;font-feature-settings:normal;text-align:start;letter-spacing:0px;word-spacing:0px;writing-mode:lr-tb;text-anchor:start;fill:#1c6abd;fill-opacity:1;stroke:none;stroke-width:0.0563567"
           d="m 125.5417,101.13221 q 0.94111,-0.0477 1.37838,-0.41919 0.44503,-0.37185 0.52013,-1.175092 0.0744,-0.795451 -0.30577,-1.117681 -0.37237,-0.322623 -1.31349,-0.274885 l -1.26002,0.06391 -0.27926,2.986848 z m -1.45397,2.13833 -0.41195,4.40618 -2.99449,0.1519 1.08857,-11.643247 4.5734,-0.231981 q 2.29447,-0.116385 3.28787,0.601619 1.00116,0.71762 0.84513,2.386511 -0.10791,1.154178 -0.73718,1.923448 -0.6215,0.76887 -1.77432,1.17662 0.60133,0.10921 1.03689,0.58386 0.44407,0.46645 0.84779,1.44722 l 1.31644,3.22413 -3.18893,0.16175 -1.14507,-2.82146 q -0.34613,-0.85174 -0.75957,-1.14899 -0.40568,-0.29765 -1.13679,-0.26056 z" />
        <path
           inkscape:connector-curvature="0"
           id="path1387"
           style="font-style:normal;font-variant:normal;font-weight:bold;font-stretch:normal;font-size:15.9124012px;line-height:1.25;font-family:sans-serif;-inkscape-font-specification:'sans-serif, Bold';font-variant-ligatures:normal;font-variant-caps:normal;font-variant-numeric:normal;font-feature-settings:normal;text-align:start;letter-spacing:0px;word-spacing:0px;writing-mode:lr-tb;text-anchor:start;fill:#1c6abd;fill-opacity:1;stroke:none;stroke-width:0.0563567"
           d="m 139.14858,97.046216 q -1.3689,0.06944 -2.21814,1.121523 -0.84924,1.052078 -1.02131,2.892541 -0.17134,1.83266 0.48832,2.80821 0.65967,0.97554 2.02858,0.9061 1.37669,-0.0698 2.22593,-1.12191 0.84923,-1.05209 1.02058,-2.88474 0.17207,-1.840466 -0.4876,-2.816006 -0.65966,-0.97555 -2.03636,-0.905718 z m 0.20343,-2.175795 q 2.80004,-0.14203 4.23653,1.383987 1.4365,1.526017 1.17183,4.356902 -0.26395,2.82308 -2.00084,4.51006 -1.73688,1.68699 -4.53693,1.82902 -2.79226,0.14163 -4.23652,-1.38399 -1.4365,-1.52602 -1.17256,-4.3491 0.26468,-2.830884 2.00157,-4.517867 1.74466,-1.687377 4.53692,-1.829012 z" />
        <path
           inkscape:connector-curvature="0"
           id="path1389"
           style="font-style:normal;font-variant:normal;font-weight:bold;font-stretch:normal;font-size:15.9124012px;line-height:1.25;font-family:sans-serif;-inkscape-font-specification:'sans-serif, Bold';font-variant-ligatures:normal;font-variant-caps:normal;font-variant-numeric:normal;font-feature-settings:normal;text-align:start;letter-spacing:0px;word-spacing:0px;writing-mode:lr-tb;text-anchor:start;fill:#1c6abd;fill-opacity:1;stroke:none;stroke-width:0.0563567"
           d="m 146.57354,94.927226 2.87004,-0.14558 1.2156,8.359644 2.78223,-8.56243 2.8856,-0.146369 1.20004,8.360439 2.79779,-8.563225 2.84671,-0.144396 -3.8264,11.782121 -3.45337,0.17517 -1.28026,-8.74445 -2.91203,8.9571 -3.45338,0.17517 z" />
      </g>
      <path
         inkscape:export-ydpi="96"
         inkscape:export-xdpi="96"
         style="color:#000000;font-style:normal;font-variant:normal;font-weight:bold;font-stretch:normal;font-size:10.50547409px;line-height:1.25;font-family:Verdana;-inkscape-font-specification:'Verdana, Bold';font-variant-ligatures:normal;font-variant-position:normal;font-variant-caps:normal;font-variant-numeric:normal;font-variant-alternates:normal;font-feature-settings:normal;text-indent:0;text-align:start;text-decoration:none;text-decoration-line:none;text-decoration-style:solid;text-decoration-color:#000000;letter-spacing:0px;word-spacing:0px;text-transform:none;writing-mode:lr-tb;direction:ltr;text-orientation:mixed;dominant-baseline:auto;baseline-shift:baseline;text-anchor:start;white-space:normal;shape-padding:0;clip-rule:nonzero;display:inline;overflow:visible;visibility:visible;opacity:1;isolation:auto;mix-blend-mode:normal;color-interpolation:sRGB;color-interpolation-filters:linearRGB;solid-color:#000000;solid-opacity:1;vector-effect:none;fill:#1c6abd;fill-opacity:1;fill-rule:nonzero;stroke:none;stroke-width:0.30657795;stroke-linecap:round;stroke-linejoin:round;stroke-miterlimit:4;stroke-dasharray:none;stroke-dashoffset:0;stroke-opacity:1;color-rendering:auto;image-rendering:auto;shape-rendering:auto;text-rendering:auto;enable-background:accumulate"
         d="m 1008.7945,685.86843 c -0.1801,0.002 -0.3447,0.10222 -0.4285,0.2616 l -3.2585,6.19673 c -0.1762,0.33617 0.081,0.73632 0.4596,0.71615 l 0.172,-0.009 1.0052,-0.0542 c -0.053,0.4694 -0.1823,1.18513 -0.7089,2.11809 -0.7771,1.37681 -2.2979,2.85713 -5.5702,3.25699 -0.62741,0.0846 -0.53024,1.01961 0.1012,0.97341 0.01,-5.4e-4 0.011,-0.003 0.018,-0.004 v 0.002 c 0.024,-0.003 0.039,-0.0114 0.063,-0.0145 3.4327,-0.31795 5.462,-2.00568 6.5675,-3.62048 0.8909,-1.30152 1.1473,-2.34861 1.2422,-2.80534 l 1.4583,-0.0788 c 0.2942,-0.0163 0.5074,-0.28683 0.4546,-0.57667 l -1.0891,-5.96043 c -0.043,-0.23446 -0.248,-0.40408 -0.4863,-0.40179 z"
         id="path1393"
         inkscape:connector-curvature="0"
         sodipodi:nodetypes="ccccccccccccccccccc" />
      <text
         inkscape:export-ydpi="96"
         inkscape:export-xdpi="96"
         xml:space="preserve"
         style="font-style:normal;font-variant:normal;font-weight:bold;font-stretch:normal;font-size:5.4671979px;line-height:1.25;font-family:'Sitka Heading';-inkscape-font-specification:'Sitka Heading, Bold';font-variant-ligatures:normal;font-variant-caps:normal;font-variant-numeric:normal;font-feature-settings:normal;text-align:start;letter-spacing:0px;word-spacing:0px;writing-mode:lr-tb;text-anchor:start;fill:#1c6abd;fill-opacity:1;stroke:none;stroke-width:0.03065587"
         x="1279.1937"
         y="771.91333"
         id="text1397"
         transform="matrix(0.99662726,-0.07504836,-0.37838717,1.0318776,0,0)"><tspan
           sodipodi:role="line"
           id="tspan1395"
           x="1279.1937"
           y="771.91333"
           style="font-style:normal;font-variant:normal;font-weight:bold;font-stretch:normal;font-size:5.4671979px;font-family:'Sitka Heading';-inkscape-font-specification:'Sitka Heading, Bold';font-variant-ligatures:normal;font-variant-caps:normal;font-variant-numeric:normal;font-feature-settings:normal;text-align:start;writing-mode:lr-tb;text-anchor:start;fill:#1c6abd;fill-opacity:1;stroke-width:0.03065587">Racing</tspan></text>
    </g>
  </g>
</svg>
