<?xml version="1.0" encoding="UTF-8" standalone="no"?>
<svg
   xmlns:dc="http://purl.org/dc/elements/1.1/"
   xmlns:cc="http://creativecommons.org/ns#"
   xmlns:rdf="http://www.w3.org/1999/02/22-rdf-syntax-ns#"
   xmlns:svg="http://www.w3.org/2000/svg"
   xmlns="http://www.w3.org/2000/svg"
   xmlns:sodipodi="http://sodipodi.sourceforge.net/DTD/sodipodi-0.dtd"
   xmlns:inkscape="http://www.inkscape.org/namespaces/inkscape"
   width="2514.783"
   height="1000"
   viewBox="0 0 665.36964 264.58334"
   version="1.1"
   id="svg3411"
   inkscape:version="0.92.5 (2060ec1f9f, 2020-04-08)"
   sodipodi:docname="wordmark_dark.svg"
   inkscape:export-filename="C:\Users\FinnH\Documents\Schule\Anderes\Racing\Logos\Finals\Wordmark\logo wordmark dark.png"
   inkscape:export-xdpi="805"
   inkscape:export-ydpi="805">
  <defs
     id="defs3405" />
  <sodipodi:namedview
     id="base"
     pagecolor="#ffffff"
     bordercolor="#666666"
     borderopacity="1.0"
     inkscape:pageopacity="0.0"
     inkscape:pageshadow="2"
     inkscape:zoom="0.29644946"
     inkscape:cx="1304.9401"
     inkscape:cy="465.33612"
     inkscape:document-units="mm"
     inkscape:current-layer="layer1"
     showgrid="false"
     units="px"
     inkscape:snap-page="true"
     inkscape:snap-bbox="true"
     inkscape:bbox-nodes="true"
     inkscape:window-width="1920"
     inkscape:window-height="1046"
     inkscape:window-x="0"
     inkscape:window-y="0"
     inkscape:window-maximized="1"
     inkscape:snap-nodes="false"
     inkscape:snap-others="false"
     inkscape:document-rotation="0" />
  <metadata
     id="metadata3408">
    <rdf:RDF>
      <cc:Work
         rdf:about="">
        <dc:format>image/svg+xml</dc:format>
        <dc:type
           rdf:resource="http://purl.org/dc/dcmitype/StillImage" />
        <dc:title></dc:title>
      </cc:Work>
    </rdf:RDF>
  </metadata>
  <g
     inkscape:label="Ebene 1"
     inkscape:groupmode="layer"
     id="layer1"
     transform="translate(0,-32.416658)">
    <path
       inkscape:connector-curvature="0"
       id="path1375"
       style="font-style:normal;font-variant:normal;font-weight:bold;font-stretch:normal;font-size:15.9124px;line-height:1.25;font-family:sans-serif;-inkscape-font-specification:'sans-serif, Bold';font-variant-ligatures:normal;font-variant-caps:normal;font-variant-numeric:normal;font-feature-settings:normal;text-align:start;letter-spacing:0px;word-spacing:0px;writing-mode:lr-tb;text-anchor:start;fill:#e8f0f5;fill-opacity:1;stroke:none;stroke-width:0.264583"
       d="m 83.158331,144.24472 q 3.322924,-0.16854 5.176079,-1.72013 1.853155,-1.55158 2.120158,-4.40738 0.263566,-2.81914 -1.315741,-4.19659 -1.575885,-1.41408 -4.898809,-1.24553 l -7.777825,0.39436 -1.081687,11.56959 z m -1.76056,23.884 q 4.235809,-0.21502 6.521445,-2.11628 2.322152,-1.90331 2.661032,-5.52798 0.332063,-3.55148 -1.621556,-5.20142 -1.950178,-1.68661 -6.222503,-1.46989 l -8.252531,0.41877 -1.338417,14.31558 z M 96.308548,147.8046 q 4.404702,1.08839 6.555732,4.51386 2.15102,3.42552 1.66837,8.58787 -0.73938,7.90835 -6.433505,12.05972 -5.694127,4.15138 -16.575783,4.7033 l -23.333479,1.18361 5.110638,-54.66276 21.106031,-1.07058 q 11.356357,-0.57604 16.110258,2.60805 4.79042,3.18233 4.08185,10.76114 -0.3731,3.99077 -2.49899,6.90441 -2.12245,2.87707 -5.791122,4.41138 z" />
    <path
       inkscape:connector-curvature="0"
       id="path1377"
       style="font-style:normal;font-variant:normal;font-weight:bold;font-stretch:normal;font-size:15.9124px;line-height:1.25;font-family:sans-serif;-inkscape-font-specification:'sans-serif, Bold';font-variant-ligatures:normal;font-variant-caps:normal;font-variant-numeric:normal;font-feature-settings:normal;text-align:start;letter-spacing:0px;word-spacing:0px;writing-mode:lr-tb;text-anchor:start;fill:#e8f0f5;fill-opacity:1;stroke:none;stroke-width:0.264583"
       d="m 120.26489,121.30076 14.05852,-0.7131 -4.11453,44.00841 24.68456,-1.2521 -0.99612,10.65428 -38.74307,1.96525 z" />
    <path
       inkscape:connector-curvature="0"
       id="path1379"
       style="font-style:normal;font-variant:normal;font-weight:bold;font-stretch:normal;font-size:15.9124px;line-height:1.25;font-family:sans-serif;-inkscape-font-specification:'sans-serif, Bold';font-variant-ligatures:normal;font-variant-caps:normal;font-variant-numeric:normal;font-feature-settings:normal;text-align:start;letter-spacing:0px;word-spacing:0px;writing-mode:lr-tb;text-anchor:start;fill:#e8f0f5;fill-opacity:1;stroke:none;stroke-width:0.264583"
       d="m 165.25213,117.96209 14.05852,-0.7131 -3.06365,32.76841 q -0.63326,6.77328 1.28383,9.5912 1.95703,2.77941 6.95966,2.52566 5.03916,-0.25587 7.50052,-3.25918 2.50131,-3.042 3.13457,-9.81528 l 3.06365,-32.76841 14.05851,-0.71311 -3.06365,32.76838 q -1.08511,11.60621 -7.42167,17.57569 -6.33656,5.96944 -18.24065,6.57329 -11.86758,0.60196 -17.14299,-4.77847 -5.2754,-5.38047 -4.19029,-16.98668 z" />
    <path
       inkscape:connector-curvature="0"
       id="path1381"
       style="font-style:normal;font-variant:normal;font-weight:bold;font-stretch:normal;font-size:15.9124px;line-height:1.25;font-family:sans-serif;-inkscape-font-specification:'sans-serif, Bold';font-variant-ligatures:normal;font-variant-caps:normal;font-variant-numeric:normal;font-feature-settings:normal;text-align:start;letter-spacing:0px;word-spacing:0px;writing-mode:lr-tb;text-anchor:start;fill:#e8f0f5;fill-opacity:1;stroke:none;stroke-width:0.264583"
       d="m 226.01434,115.93672 37.93973,-1.92445 -0.99611,10.65428 -23.88122,1.21136 -0.95161,10.17833 22.4571,-1.13915 -0.99611,10.65429 -22.45711,1.13914 -1.17069,12.52155 24.68457,-1.2521 -0.99611,10.65429 -38.74308,1.96519 z" />
    <path
       inkscape:connector-curvature="0"
       id="path1383"
       style="font-style:normal;font-variant:normal;font-weight:bold;font-stretch:normal;font-size:15.9124px;line-height:1.25;font-family:sans-serif;-inkscape-font-specification:'sans-serif, Bold';font-variant-ligatures:normal;font-variant-caps:normal;font-variant-numeric:normal;font-feature-settings:normal;text-align:start;letter-spacing:0px;word-spacing:0px;writing-mode:lr-tb;text-anchor:start;fill:#e8f0f5;fill-opacity:1;stroke:none;stroke-width:0.264583"
       d="m 372.84134,132.61171 q 4.41842,-0.22395 6.47127,-1.96802 2.08933,-1.74576 2.44191,-5.51686 0.34929,-3.73447 -1.43553,-5.24728 -1.74821,-1.51465 -6.16662,-1.29053 l -5.9155,0.30005 -1.31102,14.02268 z m -6.82605,10.03908 -1.93402,20.68613 -14.05854,0.7131 5.11062,-54.66276 21.4712,-1.0891 q 10.77213,-0.5464 15.4359,2.82448 4.70025,3.36908 3.96772,11.20419 -0.50662,5.41872 -3.46092,9.03024 -2.91782,3.60969 -8.33008,5.52399 2.82308,0.51272 4.868,2.74111 2.08482,2.18989 3.98025,6.79441 l 6.18042,15.13665 -14.97144,0.75938 -5.37587,-13.24619 q -1.62501,-3.99875 -3.56603,-5.39423 -1.90454,-1.39741 -5.337,-1.22333 z" />
    <path
       inkscape:connector-curvature="0"
       id="path1385"
       style="font-style:normal;font-variant:normal;font-weight:bold;font-stretch:normal;font-size:15.9124px;line-height:1.25;font-family:sans-serif;-inkscape-font-specification:'sans-serif, Bold';font-variant-ligatures:normal;font-variant-caps:normal;font-variant-numeric:normal;font-feature-settings:normal;text-align:start;letter-spacing:0px;word-spacing:0px;writing-mode:lr-tb;text-anchor:start;fill:#e8f0f5;fill-opacity:1;stroke:none;stroke-width:0.264583"
       d="m 430.39002,129.69262 q 4.41833,-0.22394 6.47122,-1.96801 2.08933,-1.74576 2.44191,-5.51683 0.34929,-3.73448 -1.43553,-5.24729 -1.7482,-1.51465 -6.16657,-1.29053 l -5.91555,0.30005 -1.31107,14.02266 z m -6.8261,10.03903 -1.93402,20.68614 -14.05853,0.71314 5.11062,-54.66272 21.4712,-1.08911 q 10.77208,-0.5464 15.43589,2.82448 4.70025,3.36909 3.96772,11.2042 -0.50662,5.41863 -3.46091,9.0302 -2.91782,3.60969 -8.33008,5.524 2.82312,0.51272 4.86799,2.7411 2.08482,2.18989 3.9802,6.79441 l 6.18043,15.13665 -14.97139,0.75939 -5.37588,-13.2462 q -1.62501,-3.99875 -3.56603,-5.39428 -1.90458,-1.3974 -5.337,-1.22327 z" />
    <path
       inkscape:connector-curvature="0"
       id="path1387"
       style="font-style:normal;font-variant:normal;font-weight:bold;font-stretch:normal;font-size:15.9124px;line-height:1.25;font-family:sans-serif;-inkscape-font-specification:'sans-serif, Bold';font-variant-ligatures:normal;font-variant-caps:normal;font-variant-numeric:normal;font-feature-settings:normal;text-align:start;letter-spacing:0px;word-spacing:0px;writing-mode:lr-tb;text-anchor:start;fill:#e8f0f5;fill-opacity:1;stroke:none;stroke-width:0.264583"
       d="m 494.27161,110.50969 q -6.42671,0.32601 -10.41372,5.26533 -3.98701,4.9393 -4.79485,13.5799 -0.8044,8.60398 2.29257,13.18399 3.09702,4.57997 9.52378,4.25396 6.46328,-0.3277 10.45029,-5.26715 3.98697,-4.93935 4.79142,-13.54327 0.80784,-8.64063 -2.28918,-13.22059 -3.09697,-4.58001 -9.56031,-4.25217 z m 0.95507,-10.21492 q 13.14563,-0.666804 19.88966,6.49754 6.74408,7.16435 5.50151,20.45479 -1.23919,13.2538 -9.39354,21.17383 -8.15431,7.92008 -21.29999,8.58689 -13.1091,0.66492 -19.88961,-6.49756 -6.74409,-7.16436 -5.50494,-20.41816 1.24262,-13.29044 9.39697,-21.21048 8.19083,-7.9219 21.29994,-8.58685 z" />
    <path
       inkscape:connector-curvature="0"
       id="path1389"
       style="font-style:normal;font-variant:normal;font-weight:bold;font-stretch:normal;font-size:15.9124px;line-height:1.25;font-family:sans-serif;-inkscape-font-specification:'sans-serif, Bold';font-variant-ligatures:normal;font-variant-caps:normal;font-variant-numeric:normal;font-feature-settings:normal;text-align:start;letter-spacing:0px;word-spacing:0px;writing-mode:lr-tb;text-anchor:start;fill:#e8f0f5;fill-opacity:1;stroke:none;stroke-width:0.264583"
       d="m 529.13032,100.56146 13.47427,-0.683473 5.707,39.246863 13.06201,-40.198902 13.54732,-0.687174 5.63395,39.250596 13.13507,-40.202636 13.36473,-0.67791 -17.96418,55.314716 -16.21289,0.82238 -6.01056,-41.05345 -13.6714,42.0518 -16.21293,0.82239 z" />
    <path
       inkscape:export-ydpi="96"
       inkscape:export-xdpi="96"
       style="color:#000000;font-style:normal;font-variant:normal;font-weight:bold;font-stretch:normal;font-size:10.5055px;line-height:1.25;font-family:Verdana;-inkscape-font-specification:'Verdana, Bold';font-variant-ligatures:normal;font-variant-position:normal;font-variant-caps:normal;font-variant-numeric:normal;font-variant-alternates:normal;font-feature-settings:normal;text-indent:0;text-align:start;text-decoration:none;text-decoration-line:none;text-decoration-style:solid;text-decoration-color:#000000;letter-spacing:0px;word-spacing:0px;text-transform:none;writing-mode:lr-tb;direction:ltr;text-orientation:mixed;dominant-baseline:auto;baseline-shift:baseline;text-anchor:start;white-space:normal;shape-padding:0;clip-rule:nonzero;display:inline;overflow:visible;visibility:visible;isolation:auto;mix-blend-mode:normal;color-interpolation:sRGB;color-interpolation-filters:linearRGB;solid-color:#000000;solid-opacity:1;vector-effect:none;fill:#e8f0f5;fill-opacity:1;fill-rule:nonzero;stroke:none;stroke-width:2.646;stroke-linecap:round;stroke-linejoin:round;stroke-miterlimit:4;stroke-dasharray:none;stroke-dashoffset:0;stroke-opacity:1;color-rendering:auto;image-rendering:auto;shape-rendering:auto;text-rendering:auto;enable-background:accumulate"
       d="m 326.46262,104.82679 c -1.5544,0.0173 -2.97502,0.88224 -3.69828,2.25781 l -28.12333,53.48249 c -1.52074,2.9014 0.69909,6.355 3.9667,6.18092 l 1.48449,-0.0777 8.67564,-0.46778 c -0.45743,4.05128 -1.57339,10.22857 -6.11835,18.28072 -6.70696,11.88292 -19.83262,24.65921 -48.07506,28.11031 -5.41503,0.73016 -4.57637,8.80001 0.87343,8.40126 0.0863,-0.005 0.0949,-0.0259 0.15536,-0.0345 v 0.0173 c 0.20713,-0.0259 0.3366,-0.0984 0.54373,-0.12514 29.62682,-2.74415 47.14122,-17.31055 56.68253,-31.2475 7.68914,-11.23311 9.90207,-20.27029 10.72113,-24.21222 l 12.58623,-0.6801 c 2.53917,-0.14068 4.37925,-2.47556 3.92355,-4.9771 l -9.39976,-51.44305 c -0.37113,-2.02357 -2.14043,-3.48751 -4.19714,-3.46775 z"
       id="path1393"
       inkscape:connector-curvature="0"
       sodipodi:nodetypes="ccccccccccccccccccc" />
    <path
       d="m 103.88306,229.64029 3.24141,-1.191 q 0.42383,-0.15818 0.78574,-0.48003 0.38281,-0.32342 0.55738,-0.7995 l 8.38771,-22.87362 q 0.17457,-0.47608 0.014,-0.75857 -0.16062,-0.28251 -0.47626,-0.36395 l -2.52722,-0.75662 0.56341,-1.53644 13.54376,-1.01988 q 2.2782,-0.17155 3.87305,0.024 1.62367,0.17233 2.65843,0.62048 1.05567,0.44657 1.601,1.12094 0.55326,0.65274 0.72451,1.46052 0.17124,0.80776 0.0261,1.70248 -0.14517,0.89472 -0.47846,1.8036 -0.67451,1.83942 -1.77263,3.22675 -1.07722,1.38576 -2.33305,2.42724 -1.24789,1.01984 -2.56487,1.72924 -1.28813,0.6862 -2.3686,1.08319 l 3.08965,10.14133 q 0.0799,0.22546 0.2146,0.46783 0.13468,0.24237 0.3191,0.45995 0.18443,0.21757 0.39266,0.37024 0.22913,0.15108 0.45613,0.19711 l 2.5669,0.64842 -0.56341,1.53644 -7.06449,0.53198 q -0.98235,0.074 -1.55383,-0.0303 -0.57147,-0.10427 -0.91226,-0.39425 -0.33285,-0.31161 -0.51862,-0.80265 -0.17783,-0.51267 -0.35991,-1.23545 l -2.52342,-9.46852 -2.51503,-0.56815 -3.5868,9.78135 q -0.18251,0.49771 -0.0637,0.78336 0.14764,0.26245 0.49715,0.36238 l 2.79895,0.73615 -0.56341,1.53644 -14.129,1.06395 z m 18.16125,-15.10839 q 1.27496,-0.096 2.39801,-0.66455 1.13099,-0.59019 2.0466,-1.47981 0.93649,-0.89117 1.62588,-1.99522 0.71028,-1.10561 1.12292,-2.23089 1.11095,-3.02962 0.21846,-4.30914 -0.87159,-1.28109 -3.4633,-1.08593 l -2.5081,0.18887 -4.23749,11.55582 q 0.17224,0.0291 0.53257,0.0441 0.36827,-0.007 0.79133,0.004 0.42307,0.0102 0.81224,0.002 0.41007,-0.01 0.66088,-0.0287 z"
       style="font-style:normal;font-variant:normal;font-weight:bold;font-stretch:normal;font-size:47.1861px;line-height:1.25;font-family:'Sitka Heading';-inkscape-font-specification:'Sitka Heading, Bold';font-variant-ligatures:normal;font-variant-caps:normal;font-variant-numeric:normal;font-feature-settings:normal;text-align:start;letter-spacing:0px;word-spacing:0px;writing-mode:lr-tb;text-anchor:start;fill:#e8f0f5;fill-opacity:1;stroke:none;stroke-width:0.264584"
       id="path864" />
    <path
       d="m 139.36122,228.88357 q -1.35857,0.1023 -2.2629,-0.31358 -0.89639,-0.43752 -1.36024,-1.22325 -0.44295,-0.78731 -0.45627,-1.85948 -0.0133,-1.07216 0.41521,-2.24073 0.50786,-1.38497 1.37238,-2.52324 0.87246,-1.15991 1.95528,-2.06211 1.08281,-0.9022 2.30823,-1.58367 1.24634,-0.68304 2.46808,-1.13277 1.25059,-0.47293 2.42181,-0.72947 1.20007,-0.27975 2.18241,-0.35372 0.20901,-0.0157 0.59818,-0.024 0.41007,-0.01 0.83314,3.8e-4 0.42302,0.0103 0.80428,0.0236 0.41007,-0.01 0.61118,-0.004 l 1.02872,-2.74987 q 0.38883,-1.06037 0.51233,-1.78511 0.15233,-0.74797 -0.0234,-1.15558 -0.1548,-0.4092 -0.6268,-0.56304 -0.472,-0.15384 -1.26624,-0.094 -0.85694,0.0645 -1.99798,0.5713 -1.13312,0.48514 -2.31675,1.16346 -1.1757,0.65668 -2.27069,1.37042 -1.08706,0.69208 -1.82305,1.14731 l -0.94055,0.0708 1.11586,-4.65026 q 0.963,-0.4092 2.02256,-0.80462 1.06752,-0.41707 2.22868,-0.75702 1.19001,-0.36317 2.46574,-0.62757 1.27573,-0.2644 2.65519,-0.36828 1.56756,-0.11804 3.00816,0.11015 1.44853,0.20657 2.38015,0.93603 0.93953,0.70783 1.205,2.03456 0.27341,1.3051 -0.50929,3.38412 l -4.11479,10.99949 q -0.12697,0.34623 -0.12562,0.61968 0.0223,0.27188 0.1519,0.47255 0.15849,0.17744 0.4244,0.28367 0.27383,0.0846 0.69184,0.0531 0.29262,-0.022 0.84689,-0.14796 0.5622,-0.14754 1.06169,-0.29036 l 0.52252,-0.0393 -0.64277,1.75285 q -0.42171,0.26323 -1.14685,0.63347 -0.69633,0.34702 -1.53101,0.68343 -0.8347,0.33641 -1.70035,0.59098 -0.86565,0.25457 -1.55537,0.3065 -1.04505,0.0787 -1.83057,-0.0515 -0.76461,-0.13181 -1.21997,-0.49733 -0.42651,-0.38873 -0.49906,-1.07767 -0.0516,-0.69051 0.32132,-1.7076 l -0.1045,0.008 q -1.24655,1.29329 -2.436,2.09831 -1.16854,0.80344 -2.23101,1.26221 -1.05454,0.43714 -1.99295,0.61301 -0.91752,0.1743 -1.62815,0.22781 z m 4.62463,-3.79923 q 0.45983,-0.0346 0.97229,-0.1574 0.53336,-0.12435 1.09344,-0.37693 0.56801,-0.27424 1.11299,-0.65196 0.57382,-0.40093 1.10662,-0.96712 l 2.25077,-6.08245 q -1.50487,0.11332 -2.8253,0.44422 -1.29954,0.32933 -2.37577,0.93644 -1.04738,0.58389 -1.83758,1.46405 -0.7693,0.87859 -1.21368,2.09044 -0.3809,1.03873 -0.35519,1.68911 0.0466,0.64881 0.31387,1.0285 0.28814,0.37811 0.74718,0.51188 0.48787,0.11056 1.0104,0.0712 z"
       style="font-style:normal;font-variant:normal;font-weight:bold;font-stretch:normal;font-size:47.1861px;line-height:1.25;font-family:'Sitka Heading';-inkscape-font-specification:'Sitka Heading, Bold';font-variant-ligatures:normal;font-variant-caps:normal;font-variant-numeric:normal;font-feature-settings:normal;text-align:start;letter-spacing:0px;word-spacing:0px;writing-mode:lr-tb;text-anchor:start;fill:#e8f0f5;fill-opacity:1;stroke:none;stroke-width:0.264584"
       id="path866" />
    <path
       d="m 166.92654,226.87097 q -2.36181,0.17785 -3.8916,-0.52762 -1.50096,-0.72868 -2.2154,-2.10578 -0.68562,-1.4003 -0.61142,-3.32076 0.10303,-1.94368 0.93625,-4.21589 0.60309,-1.64465 1.52181,-3.20785 0.93963,-1.56479 2.13432,-2.93835 1.22352,-1.39676 2.65237,-2.57754 1.42885,-1.18076 3.03128,-2.05897 1.60242,-0.87819 3.34959,-1.4306 1.74718,-0.55243 3.56555,-0.68936 1.17045,-0.0881 2.06048,0.0342 0.89795,0.10072 1.55516,0.30375 0.67811,0.20145 1.13134,0.46191 0.48207,0.23725 0.78685,0.40369 l -2.35481,4.86981 -0.98234,0.074 q -0.55908,-0.52605 -1.24355,-1.04265 -0.67655,-0.53825 -1.41368,-0.96672 -0.73712,-0.42847 -1.54566,-0.66218 -0.77971,-0.25693 -1.57394,-0.19712 -0.50162,0.0378 -1.0019,0.349 -0.50028,0.31122 -1.21906,0.99663 -0.37778,0.36513 -0.85078,0.98993 -0.46507,0.60318 -0.97562,1.44124 -0.48965,0.83649 -0.99596,1.88465 -0.49837,1.02654 -0.95068,2.26002 -0.73799,2.01254 -0.95402,3.54386 -0.1872,1.50813 0.1973,2.51026 0.4054,1.00055 1.39043,1.47349 1.00592,0.47136 2.678,0.34545 0.81513,-0.0614 1.63898,-0.31281 0.82385,-0.25141 1.57494,-0.58153 0.77992,-0.35332 1.45031,-0.74049 0.69129,-0.38874 1.2622,-0.72632 l 0.66883,-0.0504 -0.76973,2.0991 q -0.96166,0.68264 -2.1273,1.42274 -1.1577,0.71845 -2.43499,1.31966 -1.27729,0.60121 -2.67127,1.02181 -1.38103,0.44068 -2.80228,0.54771 z"
       style="font-style:normal;font-variant:normal;font-weight:bold;font-stretch:normal;font-size:47.1861px;line-height:1.25;font-family:'Sitka Heading';-inkscape-font-specification:'Sitka Heading, Bold';font-variant-ligatures:normal;font-variant-caps:normal;font-variant-numeric:normal;font-feature-settings:normal;text-align:start;letter-spacing:0px;word-spacing:0px;writing-mode:lr-tb;text-anchor:start;fill:#e8f0f5;fill-opacity:1;stroke:none;stroke-width:0.264584"
       id="path868" />
    <path
       d="m 192.97596,199.17432 q -0.73153,0.0551 -1.3181,-0.1743 -0.56567,-0.23096 -0.91361,-0.6677 -0.32704,-0.4383 -0.4025,-1.0639 -0.0675,-0.64724 0.21023,-1.40463 0.27774,-0.75741 0.80048,-1.40701 0.55157,-0.67282 1.21983,-1.16503 0.6762,-0.51385 1.44025,-0.8239 0.78495,-0.31162 1.55829,-0.36985 0.81514,-0.0614 1.40964,0.14636 0.6154,0.20617 0.97128,0.62126 0.36381,0.39346 0.4054,1.00056 0.0704,0.58389 -0.20731,1.3413 -0.28568,0.77904 -0.84519,1.4735 -0.53861,0.69287 -1.24364,1.22994 -0.70504,0.53707 -1.51883,0.8719 -0.79289,0.33326 -1.56622,0.3915 z m -15.11978,24.9377 2.84643,-1.05604 q 0.46562,-0.16132 0.8196,-0.46153 0.35397,-0.30021 0.52855,-0.77629 l 4.96755,-13.54672 q 0.19045,-0.51936 0.0378,-0.8235 -0.14475,-0.32579 -0.67152,-0.49655 l -1.89014,-0.72041 0.49199,-1.34169 9.82674,-2.02357 -6.78475,18.50231 q -0.17458,0.47608 -0.0269,0.73852 0.16855,0.26086 0.49715,0.36237 l 2.0862,0.6846 -0.54755,1.49317 -12.72863,0.9585 z"
       style="font-style:normal;font-variant:normal;font-weight:bold;font-stretch:normal;font-size:47.1861px;line-height:1.25;font-family:'Sitka Heading';-inkscape-font-specification:'Sitka Heading, Bold';font-variant-ligatures:normal;font-variant-caps:normal;font-variant-numeric:normal;font-feature-settings:normal;text-align:start;letter-spacing:0px;word-spacing:0px;writing-mode:lr-tb;text-anchor:start;fill:#e8f0f5;fill-opacity:1;stroke:none;stroke-width:0.264584"
       id="path870" />
    <path
       d="m 192.38223,223.01817 2.53794,-0.99073 q 0.43176,-0.17981 0.78572,-0.48001 0.37488,-0.30178 0.54153,-0.75623 l 5.03103,-13.71984 q 0.19839,-0.541 0.0248,-0.84357 -0.14475,-0.32578 -0.65061,-0.49812 l -1.69197,-0.65116 0.49199,-1.34169 9.46718,-2.20692 -1.31727,3.59226 0.1045,-0.008 q 1.33015,-1.29958 2.47779,-2.10146 1.15558,-0.8235 2.15535,-1.27755 1.02067,-0.45563 1.90432,-0.64842 0.90455,-0.19438 1.74058,-0.25733 1.42126,-0.10702 2.49571,0.23292 1.09534,0.33836 1.67375,1.19964 0.58635,0.83964 0.5772,2.25018 -0.009,1.41053 -0.74713,3.42307 l -4.14228,11.29615 q -0.19045,0.51936 -0.0428,0.7818 0.16855,0.26086 0.48128,0.40564 l 1.66314,0.67438 -0.54754,1.49317 -11.68358,0.8798 0.54754,-1.49317 2.24532,-0.96869 q 0.41086,-0.17824 0.76483,-0.47844 0.3828,-0.32342 0.57325,-0.84279 l 3.32493,-9.06721 q 0.53961,-1.47153 0.8189,-2.56573 0.28724,-1.11585 0.15993,-1.82171 -0.0985,-0.72908 -0.66627,-1.06509 -0.56779,-0.33601 -1.73823,-0.24787 -0.50163,0.0378 -1.06885,0.1436 -0.55927,0.0841 -1.15323,0.31831 -0.586,0.21247 -1.20163,0.61655 -0.60769,0.38244 -1.2061,1.01669 l -4.88819,13.33032 q -0.17458,0.47608 -0.019,0.71688 0.18442,0.21758 0.48922,0.38401 l 1.41233,0.69326 -0.54754,1.49317 -11.72538,0.88295 z"
       style="font-style:normal;font-variant:normal;font-weight:bold;font-stretch:normal;font-size:47.1861px;line-height:1.25;font-family:'Sitka Heading';-inkscape-font-specification:'Sitka Heading, Bold';font-variant-ligatures:normal;font-variant-caps:normal;font-variant-numeric:normal;font-feature-settings:normal;text-align:start;letter-spacing:0px;word-spacing:0px;writing-mode:lr-tb;text-anchor:start;fill:#e8f0f5;fill-opacity:1;stroke:none;stroke-width:0.264584"
       id="path872" />
    <path
       d="m 225.43825,232.08135 q -2.2364,0.16841 -3.98258,-0.0578 -1.75411,-0.20458 -2.8717,-0.81484 -1.09668,-0.61182 -1.48912,-1.59231 -0.37947,-0.96042 0.12046,-2.32375 0.3809,-1.03873 0.98009,-1.84139 0.59125,-0.781 1.44549,-1.39243 0.84632,-0.5898 1.9924,-1.05487 1.16697,-0.46664 2.65753,-0.87348 l 0.0397,-0.1082 q -0.60534,-0.12276 -1.20991,-0.41391 -0.58365,-0.29274 -1.0123,-0.78653 -0.40774,-0.49536 -0.56389,-1.178 -0.12732,-0.70586 0.20597,-1.61474 0.34122,-0.93053 1.01317,-1.65449 0.67195,-0.72396 1.50239,-1.27048 0.83838,-0.56815 1.77255,-0.95413 0.9421,-0.40763 1.80775,-0.66219 l 0.0397,-0.10821 q -0.63552,-0.37299 -1.20253,-0.8774 -0.56702,-0.50441 -0.89541,-1.21617 -0.29954,-0.73498 -0.31867,-1.68045 -0.0112,-0.96711 0.457,-2.24389 0.56341,-1.53644 1.77398,-2.95328 1.21055,-1.41684 2.83757,-2.52837 1.65585,-1.13473 3.62578,-1.85122 1.99876,-0.7397 4.13065,-0.90023 1.21225,-0.0913 2.37398,0.0106 1.19057,0.0787 2.2031,0.25495 l 7.81692,-0.58863 -1.52684,3.16615 -5.04908,-0.41942 -0.0317,0.0866 q 0.43948,0.4088 0.62234,0.96318 0.18286,0.55438 0.19058,1.14299 0.0286,0.58704 -0.097,1.20673 -0.11768,0.59805 -0.30813,1.11742 -0.58722,1.60137 -1.70624,2.99027 -1.09812,1.38734 -2.6754,2.47406 -1.54844,1.06352 -3.51044,1.75837 -1.93315,0.67163 -4.16954,0.84004 -1.10775,0.0834 -1.97978,0.0228 -0.85112,-0.0622 -1.39376,-0.18964 -0.22779,0.12237 -0.47938,0.30965 -0.23069,0.18572 -0.46428,0.43477 -0.21269,0.24749 -0.4074,0.55674 -0.19471,0.30927 -0.32168,0.65551 -0.17458,0.47608 -0.1473,0.78967 0.0482,0.312 0.21964,0.50952 0.1794,0.17587 0.47413,0.25889 0.29474,0.083 0.65508,0.098 l 6.66738,-0.50207 q 2.27819,-0.17155 3.5688,0.29942 1.2906,0.47096 1.85605,1.31217 0.58636,0.83963 0.55787,1.91495 -0.0285,1.07532 -0.40145,2.0924 -0.69038,1.88269 -2.20227,3.51161 -1.51982,1.65054 -3.57569,2.87853 -2.05588,1.22799 -4.53536,2.00388 -2.46652,0.79598 -5.07913,0.99271 z m 7.90455,-20.05961 q 0.85694,-0.0645 1.59293,-0.51976 0.7569,-0.4568 1.37407,-1.19768 0.64603,-0.7641 1.17827,-1.77213 0.54017,-1.02968 0.97661,-2.21989 0.43645,-1.1902 0.57659,-2.12663 0.16899,-0.95965 0.0179,-1.60059 -0.15112,-0.64094 -0.60145,-0.96474 -0.45031,-0.32382 -1.24455,-0.26401 -0.79423,0.0598 -1.51436,0.47176 -0.72012,0.41194 -1.35027,1.13276 -0.63015,0.72082 -1.17535,1.70879 -0.53726,0.96633 -0.96578,2.1349 -0.46025,1.25512 -0.63717,2.2364 -0.17692,0.98129 -0.0626,1.66708 0.13525,0.68421 0.57763,1.02967 0.4424,0.34545 1.25753,0.28407 z m -5.90514,17.48915 q 1.02414,-0.0771 2.14351,-0.41391 1.14027,-0.33838 2.17468,-0.94234 1.03442,-0.60396 1.83759,-1.46405 0.81613,-0.84004 1.2367,-1.98697 0.21426,-0.58428 0.20364,-1.10954 0.0103,-0.52684 -0.25697,-0.90653 -0.26725,-0.37968 -0.84878,-0.56736 -0.58154,-0.18768 -1.52209,-0.11685 l -6.75097,0.50836 q -0.47222,0.45641 -1.04257,1.23585 -0.57035,0.77945 -1.01474,1.99129 -0.4285,1.16856 -0.17869,1.92833 0.27071,0.75819 0.91127,1.17289 0.65352,0.43476 1.4938,0.58192 0.86119,0.14557 1.61362,0.0889 z"
       style="font-style:normal;font-variant:normal;font-weight:bold;font-stretch:normal;font-size:47.1861px;line-height:1.25;font-family:'Sitka Heading';-inkscape-font-specification:'Sitka Heading, Bold';font-variant-ligatures:normal;font-variant-caps:normal;font-variant-numeric:normal;font-feature-settings:normal;text-align:start;letter-spacing:0px;word-spacing:0px;writing-mode:lr-tb;text-anchor:start;fill:#e8f0f5;fill-opacity:1;stroke:none;stroke-width:0.264584"
       id="path874" />
    <path
       inkscape:connector-curvature="0"
       id="path2115"
       d="M 3.1799971e-8,32.465567 V 297.00003 H 665.24463 V 32.465567 Z M 607.00272,96.620419 l -17.9618,55.303351 -16.20927,0.82496 -6.00657,-41.04719 -13.67198,42.046 -16.2092,0.82062 -7.84826,-53.99672 13.47136,-0.682563 5.70333,39.241183 13.06102,-40.190983 13.54714,-0.686886 5.63196,39.241099 13.13248,-40.195404 z m -108.6177,3.643221 c 7.20006,0.18206 12.76652,2.35912 16.69976,6.53724 4.49526,4.77511 6.32645,11.59581 5.49824,20.45439 -0.82582,8.83414 -3.95595,15.88897 -9.39117,21.16793 -5.43515,5.27913 -12.5351,8.13959 -21.29719,8.58407 -8.73776,0.44267 -15.36424,-1.72323 -19.88374,-6.49711 -4.49501,-4.77529 -6.32861,-11.58012 -5.50262,-20.41436 0.8284,-8.85856 3.95584,-15.92452 9.39107,-21.20355 5.45948,-5.28027 12.55942,-8.14082 21.29728,-8.58401 1.09503,-0.0518 2.15969,-0.0689 3.18837,-0.0431 z m -171.92093,4.57068 c 2.05632,-0.0179 3.82772,1.44623 4.19617,3.46932 l 9.40006,51.43259 c 0.45647,2.50116 -1.38558,4.83584 -3.92411,4.97651 l -12.58394,0.67824 c -0.81889,3.9411 -3.03201,12.97828 -10.71994,24.20918 -9.53882,13.9343 -27.04644,28.49776 -56.66788,31.24129 -0.20278,0.026 -0.33999,0.0993 -0.54364,0.12519 v -0.0179 c -0.0604,0.009 -0.0958,0.0346 -0.1562,0.0346 -5.44877,0.39866 -6.28812,-7.67111 -0.87396,-8.40114 28.23699,-3.45053 41.35982,-16.22146 48.06584,-28.10203 4.54436,-8.05072 5.66504,-14.22795 6.11814,-18.27838 l -8.67322,0.46856 -1.4849,0.0777 c -3.27043,0.17429 -5.48492,-3.27967 -3.9643,-6.18052 L 322.7677,107.097 c 0.72312,-1.37531 2.14261,-2.23908 3.69663,-2.25635 z m 110.26766,0.4815 c 5.83726,-0.0346 10.1181,0.93253 12.83816,2.89851 3.13289,2.24555 4.45254,5.97912 3.96422,11.20156 -0.3374,3.61171 -1.49121,6.62268 -3.46038,9.02995 -1.94482,2.40596 -4.71787,4.24457 -8.32536,5.52048 1.88176,0.34171 3.50203,1.25708 4.86501,2.74242 1.38963,1.45969 2.71428,3.72234 3.97769,6.79145 l 6.18042,15.13453 -14.96963,0.7585 -5.37334,-13.24389 c -1.08313,-2.66528 -2.26911,-4.461 -3.5629,-5.39112 -1.2695,-0.93135 -3.04987,-1.34235 -5.33771,-1.2263 l -3.98207,0.20539 -1.93085,20.68184 -14.05547,0.71363 5.11027,-54.65219 21.46665,-1.08806 c 0.89752,-0.0431 1.76139,-0.0689 2.59529,-0.0777 z m -57.53735,2.91637 c 5.83726,-0.0346 10.11817,0.93256 12.83816,2.89844 3.13289,2.24565 4.45245,5.97922 3.96422,11.20163 -0.3374,3.61183 -1.49119,6.62268 -3.46036,9.02986 -1.94484,2.40606 -4.72237,4.24908 -8.32987,5.52506 1.88174,0.34171 3.50653,1.25259 4.8695,2.73793 1.38963,1.45963 2.71428,3.72675 3.9776,6.79588 l 6.18052,15.13012 -14.96963,0.76282 -5.37335,-13.24389 c -1.08313,-2.66537 -2.27361,-4.46557 -3.56737,-5.3957 -1.26943,-0.93144 -3.0454,-1.33786 -5.33322,-1.22181 l -3.98209,0.2002 -1.93085,20.68193 -14.05547,0.71364 5.11027,-54.65238 21.46665,-1.08796 c 0.89752,-0.0431 1.76139,-0.0689 2.59529,-0.0777 z m 116.6087,2.2831 c -0.50307,-0.026 -1.02221,-0.026 -1.56075,0.005 -4.28367,0.21744 -7.75481,1.96977 -10.41224,5.26185 -2.65759,3.29227 -4.25527,7.81901 -4.79373,13.57835 -0.53587,5.73484 0.22781,10.12861 2.29206,13.18142 2.06427,3.05272 5.23675,4.47135 9.52044,4.25408 4.30807,-0.21833 7.79044,-1.9741 10.44795,-5.26627 2.65751,-3.29227 4.25754,-7.80781 4.79365,-13.54271 0.53846,-5.75934 -0.2235,-10.16443 -2.28757,-13.21715 -1.80626,-2.67114 -4.47567,-4.08743 -7.99981,-4.25408 z m -231.83499,3.50497 -0.99442,10.6531 -23.87911,1.2129 -0.94981,10.1759 22.4522,-1.14156 -0.99443,10.6531 -22.4522,1.14153 -1.17277,12.51707 24.68179,-1.25305 -0.99882,10.65309 -38.73285,1.96649 5.11025,-54.65219 z m -51.69578,1.56515 -3.06342,32.76193 c -0.72312,7.73601 -3.19667,13.59492 -7.42017,17.57382 -4.22362,3.97889 -10.30379,6.17041 -18.23818,6.57289 -7.91023,0.40126 -13.62063,-1.18987 -17.13684,-4.77587 -3.51636,-3.58627 -4.91497,-9.24913 -4.19168,-16.98514 l 3.06352,-32.76193 14.05546,-0.71363 -3.06351,32.76193 c -0.42196,4.51459 0.008,7.709 1.28427,9.5873 1.30447,1.85259 3.6219,2.69745 6.95637,2.52833 3.35879,-0.16999 5.85977,-1.25762 7.50042,-3.25965 1.66724,-2.02757 2.71274,-5.3001 3.13488,-9.81475 l 3.06342,-32.76194 z m 221.4539,0.0888 c -0.62475,-0.0346 -1.30601,-0.0346 -2.04225,0.005 l -5.91302,0.29857 -1.31094,14.01974 5.91293,-0.29857 c 2.94494,-0.14921 5.10198,-0.80423 6.47029,-1.96649 1.39265,-1.16365 2.20423,-3.0025 2.4392,-5.51608 0.23299,-2.48924 -0.24161,-4.24018 -1.4314,-5.24849 -0.87387,-0.75679 -2.24971,-1.18797 -4.12481,-1.29317 z m -57.53735,2.9163 c -0.62475,-0.0346 -1.30601,-0.0346 -2.04233,0.005 l -5.91294,0.30288 -1.31092,14.01982 5.91284,-0.30287 c 2.94512,-0.1494 5.10205,-0.80426 6.47038,-1.9666 1.39256,-1.16363 2.20412,-3.00242 2.43918,-5.51609 0.23299,-2.48914 -0.24593,-4.23567 -1.43589,-5.244 -0.87395,-0.75676 -2.24616,-1.19158 -4.12032,-1.29763 z m -241.82802,2.00662 -4.11144,43.99921 24.67731,-1.25304 -0.99434,10.65307 -38.73733,1.96201 5.11025,-54.65219 z m -47.169727,2.44369 c 6.141951,-0.0604 10.600613,0.83616 13.373247,2.69339 3.19304,2.12113 4.55246,5.70853 4.08019,10.76009 -0.24852,2.66002 -1.0845,4.96081 -2.50166,6.90286 -1.41466,1.91766 -3.34274,3.38755 -5.788076,4.41019 2.935971,0.7257 5.121306,2.22949 6.555116,4.51275 1.43373,2.2832 1.98945,5.14305 1.66776,8.58401 -0.49274,5.27118 -2.63949,9.29062 -6.434666,12.05773 -3.795423,2.767 -9.317458,4.33656 -16.570406,4.7045 l -23.330741,1.18168 5.110353,-54.65228 21.100963,-1.07019 c 0.946176,-0.0518 1.860513,-0.0777 2.73792,-0.0863 z m -2.90292,9.64088 -7.7769,0.39262 -1.079082,11.56726 7.776926,-0.39262 c 2.214835,-0.11217 3.937466,-0.68689 5.17264,-1.72127 1.23525,-1.0342 1.940154,-2.50208 2.118106,-4.40567 0.175183,-1.87909 -0.263195,-3.27805 -1.31544,-4.19619 -1.050421,-0.94245 -2.681415,-1.35639 -4.89625,-1.24404 z m -1.502669,21.13219 -8.249606,0.41939 -1.337772,14.31407 8.249606,-0.41937 c 2.823278,-0.1433 4.995823,-0.85084 6.519293,-2.11811 1.547805,-1.26866 2.436263,-3.10898 2.662184,-5.52497 0.221773,-2.36723 -0.321016,-4.0997 -1.623134,-5.19949 -1.29991,-1.1241 -3.37297,-1.61596 -6.220571,-1.47152 z m 112.760266,38.28242 c 0.54279,-0.0431 1.01256,0.005 1.40913,0.1424 0.4099,0.1372 0.73004,0.34775 0.96769,0.62475 0.24247,0.26233 0.37794,0.59455 0.40556,0.9988 0.0431,0.38919 -0.0179,0.8379 -0.20538,1.34228 -0.19068,0.51947 -0.4746,1.00882 -0.84738,1.47152 -0.35896,0.46165 -0.76971,0.87284 -1.23966,1.23077 -0.47027,0.35811 -0.9782,0.65063 -1.52061,0.87395 -0.52896,0.22177 -1.04982,0.34863 -1.56516,0.38833 -0.48754,0.0346 -0.92918,-0.026 -1.31991,-0.17429 -0.37709,-0.15441 -0.68169,-0.37366 -0.91416,-0.66444 -0.21831,-0.29253 -0.35121,-0.64892 -0.40126,-1.0658 -0.0431,-0.43145 0.0258,-0.89984 0.20969,-1.40465 0.18552,-0.50479 0.45475,-0.97189 0.80252,-1.40464 0.36759,-0.44786 0.77142,-0.83962 1.2173,-1.16829 0.4513,-0.34259 0.93143,-0.61441 1.44028,-0.82065 0.52294,-0.20797 1.04499,-0.33134 1.56084,-0.37017 z m 55.1294,6.70224 -1.52511,3.16163 -5.04779,-0.41938 -0.0346,0.0888 c 0.29253,0.27267 0.50222,0.59369 0.62475,0.96318 0.12161,0.36932 0.18639,0.74901 0.19157,1.14163 0.0179,0.3909 -0.0179,0.79042 -0.0984,1.20393 -0.0777,0.39868 -0.1812,0.77316 -0.30806,1.1192 -0.3909,1.06751 -0.96172,2.06203 -1.70778,2.98776 -0.73176,0.92477 -1.62427,1.75058 -2.67554,2.47483 -1.03214,0.70931 -2.20173,1.29376 -3.50948,1.75688 -1.2885,0.44784 -2.67875,0.73088 -4.16932,0.84306 -0.73865,0.0604 -1.3987,0.0689 -1.97997,0.026 -0.56693,-0.0431 -1.02935,-0.10528 -1.39128,-0.19156 -0.15189,0.0777 -0.31323,0.18292 -0.48149,0.30805 -0.1537,0.1234 -0.30807,0.27094 -0.46338,0.43663 -0.14151,0.1648 -0.27613,0.35121 -0.40557,0.55744 -0.13022,0.20624 -0.23645,0.42456 -0.32101,0.65581 -0.11638,0.31755 -0.1691,0.58074 -0.1519,0.78957 0.0346,0.20797 0.11128,0.37622 0.22263,0.50825 0.12008,0.11727 0.27612,0.20365 0.47287,0.25887 0.19675,0.0604 0.41593,0.0897 0.65581,0.0984 l 6.66652,-0.49964 c 1.51847,-0.11484 2.70713,-0.0179 3.56736,0.29859 0.86033,0.31408 1.47817,0.75073 1.8551,1.311 0.3909,0.56004 0.57641,1.19635 0.55743,1.913 -0.0179,0.71709 -0.151,1.41344 -0.40126,2.09135 -0.45992,1.25493 -1.19513,2.42815 -2.20283,3.51387 -1.01298,1.10021 -2.20156,2.05778 -3.57186,2.87617 -1.3703,0.8189 -2.8823,1.48506 -4.53502,2.00221 -1.64401,0.53069 -3.33759,0.86317 -5.07903,0.99443 h -0.005 c -1.4906,0.11217 -2.81811,0.0949 -3.98209,-0.0604 -1.16916,-0.13631 -2.12233,-0.40904 -2.86728,-0.81633 -0.7309,-0.40815 -1.22775,-0.93841 -1.48937,-1.59189 -0.25284,-0.6403 -0.21315,-1.41458 0.11995,-2.32322 0.2537,-0.69207 0.57728,-1.3068 0.97656,-1.84172 0.39435,-0.52034 0.87982,-0.98372 1.44934,-1.39128 0.56434,-0.39261 1.22517,-0.74643 1.98876,-1.05681 0.77749,-0.31151 1.6642,-0.59885 2.65768,-0.86956 l 0.0431,-0.11128 c -0.40386,-0.0777 -0.80597,-0.22002 -1.20851,-0.41506 -0.38916,-0.19501 -0.72656,-0.45562 -1.01228,-0.78438 -0.27182,-0.33051 -0.46252,-0.72227 -0.56608,-1.17728 -0.0863,-0.47029 -0.0179,-1.00848 0.20538,-1.61416 0.22694,-0.62043 0.56865,-1.17192 1.01677,-1.65437 0.44784,-0.48238 0.94445,-0.90675 1.49826,-1.27089 0.55832,-0.37883 1.15191,-0.69637 1.77476,-0.95431 0.6282,-0.27181 1.22896,-0.49012 1.80599,-0.66012 l 0.0431,-0.10694 c -0.4237,-0.24852 -0.82667,-0.54191 -1.20401,-0.87853 -0.37798,-0.33568 -0.67741,-0.74297 -0.89632,-1.21731 -0.19934,-0.48928 -0.30375,-1.0462 -0.3167,-1.67664 -0.005,-0.64459 0.14491,-1.39645 0.45476,-2.24754 0.37538,-1.02402 0.96802,-2.00757 1.77476,-2.95195 0.80681,-0.94436 1.75162,-1.78752 2.83613,-2.52841 1.10367,-0.75592 2.31225,-1.37298 3.62536,-1.8506 1.33224,-0.49274 2.70816,-0.79388 4.12921,-0.9007 0.80768,-0.0604 1.60233,-0.0604 2.3768,0.009 0.79387,0.0518 1.52796,0.13631 2.20285,0.25457 z m -120.55065,0.97655 c 0.64546,0.005 1.23439,0.0346 1.76588,0.1026 1.08233,0.11485 1.96802,0.321 2.65767,0.61957 0.70414,0.2977 1.23741,0.67393 1.60087,1.12368 0.36846,0.43491 0.60835,0.91961 0.72226,1.45824 0.11395,0.53846 0.1234,1.10703 0.026,1.70339 -0.0966,0.59627 -0.25541,1.19574 -0.4772,1.8015 -0.44958,1.22601 -1.04257,2.30381 -1.77475,3.22851 -0.71793,0.92365 -1.49508,1.7316 -2.33219,2.42581 -0.83184,0.67998 -1.68621,1.25735 -2.56406,1.73014 -0.85859,0.45735 -1.64764,0.81459 -2.36782,1.07915 l 3.09027,10.14025 c 0.0518,0.15011 0.1225,0.30634 0.214,0.46857 0.0897,0.1614 0.19329,0.3141 0.31669,0.45906 0.1234,0.14492 0.25369,0.26839 0.39261,0.3702 0.1528,0.10107 0.3072,0.16569 0.45907,0.19589 l 2.56397,0.65063 -0.56176,1.534 -7.06336,0.53069 c -0.65496,0.0518 -1.17097,0.0431 -1.55186,-0.0346 -0.38055,-0.0689 -0.68687,-0.20365 -0.9141,-0.39694 -0.22174,-0.20797 -0.39347,-0.47546 -0.51774,-0.80252 -0.11816,-0.34171 -0.23988,-0.75331 -0.36155,-1.23516 l -2.52393,-9.46701 -2.51505,-0.56608 -3.58521,9.77903 c -0.12162,0.33222 -0.13901,0.59455 -0.0604,0.7844 0.0984,0.17518 0.26232,0.29425 0.49531,0.36155 l 2.80034,0.73608 -0.56609,1.53848 -14.12681,1.06129 0.55743,-1.534 3.24188,-1.19054 c 0.28218,-0.10528 0.54364,-0.26233 0.78439,-0.47721 0.25542,-0.21573 0.44094,-0.4858 0.55745,-0.80249 l 8.38783,-22.86693 c 0.11638,-0.31755 0.12251,-0.56952 0.0179,-0.7585 -0.10694,-0.18811 -0.26664,-0.31066 -0.47719,-0.36587 l -2.52833,-0.75333 0.56606,-1.53839 13.53823,-1.02117 c 0.75937,-0.0604 1.46384,-0.0777 2.10923,-0.0777 z m 85.83112,1.0524 c 0.94731,-0.0689 1.77648,0.005 2.49269,0.23214 0.73003,0.22523 1.28669,0.6256 1.67224,1.19953 0.3909,0.56004 0.58506,1.3118 0.57988,2.25195 -0.008,0.94013 -0.25715,2.07876 -0.74901,3.42014 l -4.13819,11.29526 c -0.12684,0.34604 -0.14331,0.60577 -0.0431,0.78009 0.11217,0.17338 0.27267,0.30892 0.48149,0.40557 l 1.66327,0.67305 -0.54881,1.49379 -11.68323,0.87853 0.54881,-1.48937 2.24745,-0.97216 c 0.27355,-0.11919 0.52638,-0.27786 0.76282,-0.4772 0.25542,-0.21574 0.44871,-0.49703 0.57557,-0.84305 l 3.32212,-9.0656 c 0.35984,-0.98087 0.63424,-1.83472 0.82064,-2.56405 0.19156,-0.74384 0.24592,-1.34882 0.1605,-1.81937 -0.069,-0.48581 -0.28996,-0.8422 -0.66877,-1.06579 -0.37881,-0.22349 -0.95454,-0.30806 -1.73461,-0.24937 -0.33397,0.0258 -0.69207,0.0689 -1.07029,0.1424 -0.37277,0.0604 -0.75936,0.16658 -1.15492,0.32101 -0.39088,0.14151 -0.78956,0.34602 -1.19952,0.61525 -0.40471,0.25456 -0.80512,0.59368 -1.20395,1.01668 l -4.88737,13.32863 c -0.11638,0.31756 -0.1225,0.55744 -0.0179,0.71793 0.1234,0.14492 0.28304,0.27268 0.48582,0.38315 l 1.41364,0.69119 -0.54883,1.49388 -11.72335,0.88293 0.54449,-1.49388 2.53732,-0.99442 c 0.28735,-0.11996 0.54881,-0.27699 0.78438,-0.47719 0.25025,-0.20106 0.43319,-0.45562 0.54364,-0.7585 l 5.03,-13.7166 c 0.13201,-0.36068 0.1415,-0.64114 0.0258,-0.84307 -0.0965,-0.21745 -0.31408,-0.38484 -0.65148,-0.4996 l -1.69002,-0.65152 0.49014,-1.33777 9.46251,-2.20733 -1.3155,3.58972 0.10694,-0.005 c 0.88664,-0.86625 1.70993,-1.57024 2.47491,-2.10472 0.77057,-0.5488 1.4874,-0.97267 2.15383,-1.27538 0.67997,-0.30374 1.31508,-0.5186 1.90401,-0.64632 0.60318,-0.1295 1.18633,-0.21659 1.7436,-0.25887 z m 21.23929,0.52208 c -0.52897,0.0431 -1.03161,0.19847 -1.51165,0.47287 -0.47978,0.2744 -0.93091,0.65237 -1.35115,1.13265 -0.42025,0.48064 -0.81373,1.04922 -1.17728,1.70788 -0.3581,0.64374 -0.67824,1.35703 -0.96318,2.13597 -0.30634,0.83616 -0.51948,1.5799 -0.63768,2.23408 -0.11817,0.65409 -0.13542,1.21058 -0.0604,1.66776 0.0906,0.45647 0.28045,0.79991 0.57557,1.03005 0.29511,0.23039 0.71449,0.32619 1.25744,0.28563 0.57123,-0.0431 1.10141,-0.21574 1.59197,-0.52208 0.50481,-0.30459 0.96207,-0.70153 1.37343,-1.19504 0.43057,-0.50912 0.82233,-1.10279 1.17725,-1.77483 0.35985,-0.68601 0.68603,-1.42294 0.97657,-2.21622 0.2908,-0.79301 0.48235,-1.50284 0.57556,-2.127 0.11306,-0.6394 0.11906,-1.17373 0.0179,-1.60087 -0.10107,-0.42714 -0.302,-0.74729 -0.6023,-0.96318 -0.3003,-0.21572 -0.7145,-0.30721 -1.24414,-0.26751 z m -109.97333,1.40464 c -0.35984,-0.026 -0.7585,-0.026 -1.19064,0.005 l -2.50608,0.18724 -4.2363,11.55387 c 0.11485,0.0179 0.28995,0.0346 0.53069,0.0431 0.24594,-0.008 0.51258,-0.005 0.79389,0.005 0.28217,0.008 0.55227,0.005 0.81114,0 0.27354,-0.008 0.49271,-0.0179 0.66012,-0.0346 v 0.009 c 0.84996,-0.0604 1.65058,-0.28561 2.39907,-0.66444 0.75418,-0.39348 1.4365,-0.88757 2.04683,-1.48041 0.62389,-0.59368 1.16373,-1.25743 1.62314,-1.99324 0.47374,-0.73694 0.84911,-1.47964 1.12377,-2.22968 0.74038,-2.01938 0.81371,-3.45924 0.21831,-4.31205 -0.43577,-0.64028 -1.19357,-1.00107 -2.2742,-1.08805 z m 67.56162,0.10693 -6.7825,18.50135 c -0.11638,0.31756 -0.12595,0.5609 -0.0258,0.73608 0.11216,0.17338 0.27526,0.2977 0.49531,0.36587 l 2.08696,0.68256 -0.54882,1.49388 -12.72666,0.95868 0.55312,-1.49379 2.84503,-1.05688 c 0.30977,-0.10783 0.58419,-0.26319 0.82062,-0.4634 0.23558,-0.20018 0.40989,-0.45905 0.52639,-0.77574 l 4.96761,-13.54264 c 0.12684,-0.34602 0.13972,-0.61784 0.0346,-0.82063 -0.0967,-0.21746 -0.32274,-0.38572 -0.67308,-0.49963 l -1.89073,-0.71794 0.49532,-1.34225 z m -17.38197,0.93204 c 0.78006,-0.0604 1.46686,-0.0431 2.0601,0.0346 0.59886,0.0689 1.11825,0.16731 1.55627,0.30289 0.45216,0.13381 0.82667,0.28561 1.12817,0.45906 0.32187,0.15798 0.58591,0.29512 0.78956,0.40557 l -2.35446,4.8695 -0.98552,0.0776 c -0.37277,-0.35033 -0.78353,-0.69896 -1.23967,-1.04351 -0.4513,-0.35898 -0.92227,-0.67826 -1.41353,-0.96318 -0.49101,-0.28563 -1.00831,-0.50827 -1.54739,-0.66444 -0.51946,-0.17179 -1.04446,-0.23645 -1.57402,-0.1959 -0.33395,0.0258 -0.66531,0.1381 -0.99891,0.34775 -0.33394,0.20797 -0.74297,0.54192 -1.22181,0.99893 -0.25195,0.24334 -0.53673,0.57383 -0.85168,0.98992 -0.3098,0.40212 -0.63166,0.88181 -0.97207,1.44029 -0.32618,0.55743 -0.66101,1.18753 -0.9989,1.88632 -0.33222,0.68429 -0.64891,1.43417 -0.94983,2.25635 -0.49185,1.3414 -0.81026,2.52437 -0.95419,3.5451 -0.12519,1.00521 -0.0518,1.84257 0.20019,2.51047 0.27008,0.66703 0.73002,1.1564 1.38678,1.47162 0.6705,0.31409 1.5655,0.42714 2.68003,0.34343 0.54278,-0.0431 1.0872,-0.14401 1.63651,-0.31237 0.54968,-0.16748 1.07372,-0.35899 1.57413,-0.57988 0.52033,-0.23558 1.00702,-0.48237 1.45375,-0.74037 0.4608,-0.25975 0.88147,-0.50223 1.26193,-0.72658 l 0.66874,-0.0518 -0.77143,2.09584 c -0.64113,0.45475 -1.35011,0.92926 -2.12698,1.42252 -0.77146,0.4789 -1.58345,0.91899 -2.43481,1.31998 -0.8517,0.40125 -1.74197,0.74125 -2.67106,1.02109 -0.92055,0.29425 -1.8531,0.47719 -2.80041,0.5488 v -0.005 c -1.5742,0.11817 -2.87323,-0.0604 -3.89285,-0.52638 -1.00046,-0.48581 -1.74006,-1.18676 -2.21623,-2.10464 -0.45648,-0.9334 -0.66012,-2.04217 -0.61094,-3.32213 0.069,-1.29566 0.38056,-2.69962 0.93645,-4.21402 0.40211,-1.09626 0.91296,-2.16876 1.52503,-3.21064 0.62646,-1.043 1.33517,-2.0187 2.13156,-2.93425 0.81543,-0.93084 1.70079,-1.79029 2.6532,-2.57734 0.95248,-0.78698 1.95975,-1.47482 3.02778,-2.06022 1.06811,-0.58505 2.18436,-1.06309 3.34896,-1.43139 1.1645,-0.36846 2.35532,-0.59627 3.56737,-0.68687 z m -23.82571,1.7926 c 0.50136,0.0179 0.99596,0.0689 1.47602,0.1424 0.96558,0.13722 1.75584,0.45045 2.37679,0.93643 0.62648,0.47203 1.02705,1.14906 1.20394,2.03346 0.18207,0.8699 0.0179,1.99877 -0.50825,3.38452 l -4.11134,10.99643 c -0.0864,0.2304 -0.13023,0.43749 -0.12951,0.61957 0.0179,0.18122 0.0689,0.33911 0.15189,0.47287 0.10528,0.11817 0.25026,0.21056 0.42802,0.28132 0.18206,0.0604 0.41247,0.0777 0.69118,0.0518 0.19502,-0.0179 0.47807,-0.0689 0.8474,-0.14759 0.37448,-0.0984 0.72829,-0.19848 1.06128,-0.29427 l 0.52206,-0.0431 -0.64201,1.75241 c -0.2813,0.17518 -0.66702,0.38657 -1.15044,0.63335 -0.46423,0.23127 -0.97326,0.45823 -1.5295,0.68258 -0.55657,0.22435 -1.12187,0.42369 -1.69899,0.59281 -0.57728,0.16999 -1.09648,0.26839 -1.55626,0.30288 -0.69637,0.0518 -1.30472,0.0346 -1.82826,-0.0518 -0.50998,-0.0879 -0.91838,-0.25629 -1.22187,-0.49963 -0.2839,-0.25888 -0.4513,-0.61526 -0.49963,-1.07468 -0.0346,-0.45992 0.069,-1.02996 0.32101,-1.70788 l -0.1026,0.005 c -0.83099,0.86205 -1.64186,1.56378 -2.4347,2.10031 -0.77921,0.53588 -1.52139,0.95621 -2.2296,1.26194 -0.70327,0.29081 -1.36772,0.49358 -1.99324,0.61094 -0.6118,0.11638 -1.15406,0.19157 -1.62763,0.22781 l 0.005,0.009 c -0.90555,0.0689 -1.65801,-0.0431 -2.26083,-0.3167 -0.59715,-0.29166 -1.05087,-0.69809 -1.36004,-1.22188 -0.29512,-0.52465 -0.45045,-1.14464 -0.45908,-1.8595 -0.009,-0.71449 0.12685,-1.4596 0.41507,-2.23847 0.33912,-0.92314 0.79732,-1.76517 1.37349,-2.52393 0.58162,-0.77318 1.23146,-1.45885 1.95311,-2.06012 0.72141,-0.60145 1.49311,-1.12886 2.30984,-1.5831 0.83099,-0.45561 1.6517,-0.83358 2.46595,-1.13257 0.83358,-0.31495 1.64067,-0.56089 2.42141,-0.73176 0.79994,-0.18638 1.53021,-0.30288 2.185,-0.35205 0.139,-0.009 0.33739,-0.0179 0.59713,-0.026 0.27353,-0.005 0.55227,-0.008 0.83357,0 0.28217,0.008 0.54796,0.0179 0.80251,0.026 0.27353,-0.005 0.47719,-0.008 0.61094,-0.005 l 1.02557,-2.74681 c 0.25972,-0.70673 0.43146,-1.30508 0.51257,-1.78812 0.10107,-0.49878 0.0915,-0.88355 -0.026,-1.15493 -0.1026,-0.27269 -0.30977,-0.45907 -0.62475,-0.56175 -0.31496,-0.1026 -0.73691,-0.13292 -1.2664,-0.094 -0.57125,0.0431 -1.23725,0.23041 -1.99774,0.57124 -0.75504,0.32361 -1.52985,0.71191 -2.31882,1.16383 -0.78352,0.43748 -1.53986,0.89336 -2.26971,1.36901 -0.72485,0.46165 -1.3332,0.84738 -1.82385,1.15042 l -0.93635,0.0689 1.1148,-4.65103 c 0.64199,-0.27267 1.31378,-0.53931 2.02,-0.8025 0.7119,-0.27785 1.45563,-0.53155 2.22958,-0.7585 0.79301,-0.24247 1.61564,-0.44784 2.46594,-0.62475 0.84998,-0.17607 1.73378,-0.30029 2.65329,-0.37018 0.52206,-0.0431 1.03273,-0.0518 1.53392,-0.0346 z m -3.02329,11.25057 c -1.00306,0.0777 -1.94708,0.22608 -2.82717,0.44612 -0.86619,0.21919 -1.6549,0.53156 -2.37232,0.93643 -0.6981,0.38918 -1.3105,0.87621 -1.83722,1.46264 -0.51259,0.58593 -0.91642,1.28359 -1.21292,2.09136 -0.25369,0.69205 -0.37363,1.25208 -0.35636,1.68561 0.026,0.43231 0.13111,0.77749 0.31237,1.03005 0.19241,0.25198 0.44267,0.4237 0.74901,0.51259 0.3253,0.0777 0.66356,0.094 1.01228,0.0689 v 0.005 c 0.30632,-0.026 0.63078,-0.0777 0.97206,-0.1605 0.35551,-0.0863 0.7188,-0.20624 1.09253,-0.37451 0.37883,-0.18207 0.7516,-0.39865 1.1148,-0.65063 0.38227,-0.26664 0.75073,-0.59023 1.1059,-0.96766 z m 82.68735,5.15046 c -0.25369,-0.0179 -0.53415,-0.0179 -0.84738,0.009 l -6.75126,0.50825 c -0.31496,0.30461 -0.66359,0.71536 -1.04343,1.23518 -0.38055,0.51946 -0.71621,1.18115 -1.01229,1.98884 -0.28561,0.7792 -0.34515,1.4245 -0.17858,1.93093 0.18035,0.50481 0.48323,0.89596 0.90968,1.17271 0.43577,0.28993 0.93366,0.48236 1.49388,0.57988 0.57383,0.0975 1.11281,0.12685 1.61424,0.0888 0.68257,-0.0518 1.3943,-0.1907 2.14037,-0.41505 0.76022,-0.22523 1.48672,-0.53846 2.17618,-0.94083 0.68947,-0.40299 1.30179,-0.89398 1.83714,-1.46713 0.5445,-0.56003 0.95516,-1.21973 1.23525,-1.98436 0.1424,-0.38916 0.21228,-0.76022 0.20539,-1.11029 0.005,-0.35121 -0.0777,-0.65152 -0.25887,-0.90529 -0.1777,-0.25284 -0.45995,-0.44182 -0.84738,-0.56608 -0.19416,-0.0604 -0.41939,-0.10528 -0.67308,-0.12519 z"
       style="opacity:1;fill:#1c6abd;fill-opacity:1;stroke:none;stroke-width:0.79375005;stroke-linecap:square;stroke-linejoin:miter;stroke-miterlimit:4;stroke-dasharray:none;stroke-dashoffset:17;stroke-opacity:1;paint-order:markers stroke fill"
       inkscape:export-xdpi="381.81445"
       inkscape:export-ydpi="381.81445" />
  </g>
</svg>
